<svg width="906" height="134" viewBox="0 0 906 134" fill="none" xmlns="http://www.w3.org/2000/svg">
<path d="M123.374 24.9109C118.958 16.9354 112.49 11.4343 104.298 8.30915C96.8645 5.50932 89.3129 5.18399 81.8796 7.23457C75.6292 8.95981 69.9113 12.6272 65.0707 18.01C64.8539 18.2268 64.637 18.4437 64.4201 18.7592C61.1865 15.0918 57.5191 12.0751 53.4278 9.92595C46.4085 6.25857 38.7583 5.07554 30.5658 6.5839C23.8818 7.76693 18.0652 10.6752 12.9979 15.3186C7.07294 20.7013 3.08023 27.6023 1.1381 35.9032C-0.261816 42.1535 -0.37026 48.4038 0.812765 54.5457C2.21268 61.5551 5.44628 68.2392 10.622 75.1303C15.0386 80.8483 20.2144 86.3395 27.0069 92.3729C34.9825 99.3824 43.1749 106.382 51.042 113.174L56.967 118.242C59.2345 120.184 61.709 121.258 64.1933 121.258C66.6777 121.258 69.1522 120.292 71.5182 118.242C73.6772 116.408 75.8264 114.574 77.9854 112.642C80.3613 110.483 82.8358 108.442 85.2117 106.392C91.0283 101.324 97.18 96.0403 102.997 90.766C110.864 83.7566 116.473 77.3978 120.781 70.7137C125.09 64.0296 127.574 57.3455 128.215 50.346C129.181 41.1874 127.465 32.5612 123.147 24.9109H123.364H123.374ZM68.7283 33.3203C68.7283 30.6289 70.8873 28.4699 73.5787 28.4699C76.27 28.4699 78.4291 30.6289 78.4291 33.3203V40.8621C78.4291 43.5534 76.27 45.7125 73.5787 45.7125C70.8873 45.7125 68.7283 43.5534 68.7283 40.8621V33.3203ZM50.2928 35.361C50.2928 32.6696 52.4518 30.5106 55.1432 30.5106C57.8346 30.5106 59.9936 32.6696 59.9936 35.361V55.1964C59.9936 57.8878 57.8346 60.0468 55.1432 60.0468C52.4518 60.0468 50.2928 57.8878 50.2928 55.1964V35.361ZM31.6503 37.3031C31.6503 34.6117 33.8093 32.4527 36.5007 32.4527C39.1921 32.4527 41.3511 34.6117 41.3511 37.3031V55.5217C41.3511 58.2131 39.1921 60.3721 36.5007 60.3721C33.8093 60.3721 31.6503 58.2131 31.6503 55.5217V37.3031ZM97.0716 83.2242C97.0716 84.841 95.7801 86.1325 94.1633 86.1325H71.2028C69.0437 86.1325 67.6438 88.1831 68.4029 90.2238L74.5448 105.741C74.5448 106.066 74.8701 106.392 75.087 106.599C74.6532 106.924 74.2293 107.348 73.7955 107.673C71.6365 109.507 69.4874 111.341 67.4368 113.174C65.2778 115.008 63.4441 115.117 61.2949 113.174L55.3699 108.107C47.5028 101.315 39.4188 94.4235 31.5517 87.4141V70.063C31.5517 67.904 33.3854 66.0703 35.5444 66.0703H84.3738C85.9906 66.0703 87.3905 64.6704 87.3905 63.0536C87.3905 61.4368 87.0651 61.4368 86.5328 60.8946C85.9906 60.3524 85.2413 60.0271 84.3738 60.0271H73.7068C71.0154 60.0271 68.748 57.9765 68.6395 55.2851C68.6395 52.4853 70.7986 50.2178 73.4899 50.2178H92.1324C94.8238 50.2178 96.9828 52.3768 96.9828 55.0682V83.096L97.0913 83.2045L97.0716 83.2242ZM97.0716 40.8621C97.0716 43.5534 94.9125 45.7125 92.2212 45.7125C89.5298 45.7125 87.3708 43.5534 87.3708 40.8621V31.7035C87.3708 29.0121 89.5298 26.8531 92.2212 26.8531C94.9125 26.8531 97.0716 29.0121 97.0716 31.7035V40.8621Z" fill="white"/>
<path d="M177.815 106V38.3401H153.423V27.523H214.508V38.3401H190.117V106H177.815ZM214.208 106L241.569 27.523H257.477L284.944 106H271.9L265.855 88.3957H233.297L227.252 106H214.208ZM237.009 77.3665H262.143L249.629 40.7792L237.009 77.3665ZM297.253 106V27.523H326.735C332.886 27.523 338.011 28.7956 342.112 31.3408C346.213 33.8153 349.288 37.0321 351.338 40.9913C353.389 44.8798 354.414 48.9804 354.414 53.2931C354.414 57.6058 353.389 61.7418 351.338 65.701C349.288 69.6602 346.213 72.9124 342.112 75.4576C338.011 77.9321 332.886 79.1693 326.735 79.1693H309.661V106H297.253ZM326.735 38.3401H309.661V68.3522H326.735C330.128 68.3522 332.956 67.6452 335.219 66.2312C337.481 64.7465 339.178 62.873 340.309 60.6106C341.44 58.2775 342.006 55.8737 342.006 53.3992C342.006 50.854 341.44 48.4502 340.309 46.1878C339.178 43.8547 337.481 41.9811 335.219 40.5671C332.956 39.0824 330.128 38.3401 326.735 38.3401ZM402.587 106V87.017H363.985V79.4875L400.996 27.523H410.753V79.9117H424.433V87.1231L410.753 87.017V106H402.587ZM372.575 79.9117H402.587V37.5977L372.575 79.9117ZM473.511 107.061C467.219 107.061 461.704 105.929 456.968 103.667C452.301 101.334 448.377 98.2583 445.196 94.4405C442.085 90.552 439.717 86.2393 438.091 81.5024C436.535 76.6948 435.758 71.7812 435.758 66.7615C435.758 61.7418 436.535 56.8281 438.091 52.0205C439.717 47.2129 442.085 42.9002 445.196 39.0824C448.377 35.1939 452.301 32.1185 456.968 29.8561C461.704 27.5937 467.219 26.4625 473.511 26.4625C478.672 26.4625 483.091 27.1341 486.768 28.4774C490.515 29.8207 493.625 31.5529 496.1 33.6739C498.645 35.7242 500.66 37.9159 502.145 40.249C503.7 42.5821 504.831 44.8091 505.538 46.9301C506.316 49.0511 506.846 50.7833 507.129 52.1266C507.412 53.3992 507.553 54.0355 507.553 54.0355H495.146C495.146 54.0355 495.004 53.5052 494.721 52.4447C494.509 51.3135 493.979 49.9349 493.131 48.3088C492.353 46.6827 491.151 45.0919 489.525 43.5365C487.969 41.9104 485.884 40.5671 483.268 39.5066C480.723 38.3754 477.506 37.8098 473.617 37.8098C469.446 37.8098 465.77 38.6229 462.588 40.249C459.477 41.8751 456.861 44.0668 454.74 46.8241C452.619 49.5814 451.029 52.6922 449.968 56.1565C448.978 59.6208 448.484 63.1558 448.484 66.7615C448.484 70.3672 448.978 73.9022 449.968 77.3665C451.029 80.7601 452.619 83.8709 454.74 86.6989C456.861 89.4562 459.477 91.6479 462.588 93.274C465.77 94.9001 469.446 95.7131 473.617 95.7131C477.506 95.7131 480.723 95.1829 483.268 94.1224C485.884 92.9912 487.969 91.6125 489.525 89.9864C491.151 88.3603 492.353 86.7342 493.131 85.1081C493.979 83.482 494.509 82.1387 494.721 81.0782C495.004 79.947 495.146 79.3814 495.146 79.3814H507.553C507.553 79.3814 507.412 80.0531 507.129 81.3964C506.846 82.7397 506.316 84.4718 505.538 86.5928C504.831 88.6431 503.7 90.8702 502.145 93.274C500.66 95.6071 498.645 97.8341 496.1 99.9551C493.625 102.005 490.515 103.702 486.768 105.046C483.091 106.389 478.672 107.061 473.511 107.061ZM520.952 106V27.523H533.36V60.6106H568.463V27.523H580.87V106H568.463V71.6398H533.36V106H520.952ZM593.151 106L620.512 27.523H636.419L663.886 106H650.842L644.797 88.3957H612.24L606.195 106H593.151ZM615.951 77.3665H641.085L628.571 40.7792L615.951 77.3665ZM676.195 106V27.523H687.437L725.933 83.9416V27.523H738.341V106H726.993L688.497 50.1116V106H676.195ZM790.017 107.061C783.512 107.061 777.856 105.929 773.049 103.667C768.312 101.404 764.353 98.3644 761.171 94.5466C757.99 90.6581 755.621 86.3454 754.066 81.6085C752.51 76.8009 751.733 71.8872 751.733 66.8675C751.733 61.8478 752.51 56.9342 754.066 52.1266C755.621 47.319 757.99 43.0063 761.171 39.1885C764.423 35.3 768.453 32.2245 773.261 29.9621C778.139 27.629 783.83 26.4625 790.335 26.4625C795.425 26.4625 799.773 27.0988 803.379 28.3714C806.985 29.644 810.025 31.3054 812.499 33.3557C814.974 35.3353 816.953 37.4563 818.438 39.7187C819.923 41.9811 821.054 44.1375 821.832 46.1878C822.609 48.2381 823.14 49.8995 823.422 51.1721C823.705 52.4447 823.847 53.081 823.847 53.081H811.439C811.439 53.081 811.297 52.5508 811.015 51.4903C810.732 50.4298 810.166 49.1572 809.318 47.6725C808.54 46.1171 807.374 44.5617 805.818 43.0063C804.263 41.4509 802.212 40.1783 799.667 39.1885C797.193 38.128 794.117 37.5977 790.441 37.5977C786.058 37.5977 782.204 38.4461 778.881 40.1429C775.629 41.769 772.907 43.9607 770.716 46.718C768.595 49.4753 767.004 52.5861 765.943 56.0504C764.883 59.5147 764.353 63.0497 764.353 66.6554C764.353 70.3318 764.883 73.9375 765.943 77.4725C767.075 80.9368 768.701 84.083 770.822 86.911C773.013 89.6683 775.7 91.86 778.881 93.4861C782.134 95.1122 785.916 95.9252 790.229 95.9252C796.945 95.9252 802.283 94.0163 806.242 90.1985C810.202 86.3807 812.393 81.2196 812.817 74.7152H790.441V64.7465H824.801V70.3672C824.801 78.427 823.246 85.1788 820.135 90.6227C817.095 96.0666 812.924 100.167 807.621 102.925C802.389 105.682 796.521 107.061 790.017 107.061ZM837.756 106V27.523H888.978V38.3401H850.164V60.7166H884.1V71.4277H850.164V95.1829H889.508V106H837.756Z" fill="white"/>
</svg>
