<svg xmlns="http://www.w3.org/2000/svg" width="900.518" height="175.538" viewBox="0 0 900.518 175.538">
  <g id="Group_352" data-name="Group 352" transform="translate(-335.001 -500)">
    <path id="Path_193" data-name="Path 193" d="M457.788,36.772c-.018-.125.02-.254.011-.38-.415-6.565,1.071-13.093.153-19.709-.483-3.465.087-7.07.085-10.612-.007-3.214-.625-4.394-3.59-4.851A83.635,83.635,0,0,0,440.475.007c-4.919.077-7.4,3.4-7.241,8.349a91.909,91.909,0,0,1,.042,10.266c-.835,10.234-1.878,20.45-2.875,30.67-.046.424-.435.813-.916,1.668-.949-1.285-1.762-2.219-2.392-3.26q-5.985-9.923-11.9-19.888c-3.752-6.288-8.1-12.245-10.076-19.484-.691-2.534-2.549-3.9-5.466-3.7-4.81.337-9.632.4-14.444.676a22.157,22.157,0,0,0-4.493.783c-3.522.949-4.095,2.145-3.9,5.776.2,3.9.044,7.824-.013,11.738-.02,1.39-.265,2.776-.286,4.167-.12,7.481-.07,14.969-.324,22.444-.061,1.815-.146,3.627-.214,5.441a.24.24,0,0,1,.208.02c.033.122-.16.238-.085.258-.087.048-.083-.072-.127-.171-.339,9.047-.737,18.091-1.275,27.129-.28,4.711-.82,9.405-1.31,14.105a.363.363,0,0,1,.155.083c0,.116-.12.112-.173.175-.009-.009,0-.022,0-.033-.158,1.522-.31,3.048-.448,4.571-.3,3.413.184,4.235,3.312,5.56.527.223,1.056.4,1.587.573a.4.4,0,0,0,.057-.19,1.843,1.843,0,0,1,.564-.044c.02.168-.129-.022-.173.129a.78.78,0,0,1,.168.328c.083.026.166.044.249.068a.408.408,0,0,0,.013-.094c.171-.1.424-.122.477-.343.092-.02.116.031.175.042,0,.144-.142.149-.131.3-.033-.035-.118-.024-.129-.085a.33.33,0,0,1-.031.271c5.079,1.393,10.264.947,15.47-.048.066-.011.107-.044.173-.057-.087-.007-.118-.066-.1-.166h.171c0,.07-.035.094-.037.155a4.729,4.729,0,0,0,1.106-.376c-.044,0-.1,0-.114-.037.015-.114.136-.077.227-.033.061-.035.1-.09.155-.127l.009-.015,0,.007a3.415,3.415,0,0,0,1.493-3.067c0-2.282-.031-4.565-.133-6.843-.31-6.83-1.327-13.71-.824-20.478.641-8.607,1.135-17.2,1.248-25.821a14.031,14.031,0,0,1,.91-2.984c.883,1.511,1.41,2.32,1.843,3.172,1.771,3.5,3.286,7.158,5.321,10.5a74.975,74.975,0,0,1,7.134,15.1,24.369,24.369,0,0,0,2.96,5.258c1.933,2.956,4.007,5.824,5.968,8.76,2.811,4.2,5.479,8.515,8.4,12.645a10.544,10.544,0,0,0,5.3,4.082.3.3,0,0,1-.083-.234c.188,0,.12.256.3.258-.011.026,0,.037,0,.059a10.473,10.473,0,0,0,4.331.332c3.763-.461,7.486-1.251,11.246-1.749,2.02-.271,3.472-1.2,3.7-3.185.284-2.475.693-5.122.138-7.479-2.363-9.976-.951-19.93-.42-29.914.522-9.794,4.576-19.237,2.84-29.243m-81,18.471c-.131-.072-.061-.21,0-.3.063.022.112.063.175.085-.031.1-.23.033-.175.219m1.43,2.337c-.157-.092.127-.1.216-.085,0,.171-.221.007-.216.085m.433,50.156c-.114-.033-.149-.138-.131-.3.057-.059.23,0,.175-.173.186.007-.072.184.129.173a.462.462,0,0,1-.173.3m-.131-50.373c.011-.052.087-.042.087,0,.085,0,.057-.116.175-.085,0,.109-.033.05-.09.044-.022.221.155,0,.133.173-.16.011-.16-.131-.306-.131m6.5,17.413c0,.094-.181.015-.258.042.015-.072-.033-.081-.087-.085-.02-.094.227.074.346.044m-4.893-10.439c.116-.013.142.061.129.173h-.129Zm.433,21.525c.573-.114,1.587.582,1.3,1.3-.175.439-1.266.553-1.69-.046-.321-.457-.271-1.126.391-1.255m1.082,21.222c-.018.1-.23.035-.26,0,.028-.157.221.118.175-.085.046.011.026.085.085.085m.09,1.041c-.116-.171-.4-.087-.481-.433-.28.21-.393.654-.995.477.109-.107-.09-.094-.044-.262-.129.149-.26.291-.387.435-.146-.044-.205-.173-.348-.216.039-.136.157-.188.3-.219a.342.342,0,0,1-.131-.258c.074.081.168-.013.175-.129.122,0,.2.055.171.216.173-.074.09-.118.044-.26.042.12.232.007.173-.042.112-.068.216.245.3.343.216-.094.477-.107.477-.258.072-.015.389.031.389-.175.278.166.568.472.35.78m.343.477c0,.1-.109.094-.216.085.269-.116-.116-.21.087-.389.1-.015-.024.2.129.129.042.081-.129.146,0,.175m.3-47.209c.035.009.042-.015.044-.044.116-.013.142.061.129.173-.114.011-.188-.015-.173-.129m.995,46.516c-.074-.238-.33-.031-.433-.219.007-.079.147-.024.175-.085,0-.083-.164.066-.219-.044.053-.3.258.087.391-.129-.031.317.206.131.3.345-.031.085-.116.116-.219.131M383.8,55.98c.673-.184.566.859.387,1.255-.144-.195-.393-.6-.129-.824-.077-.181-.254-.265-.3-.477.037-.007.042.017.044.046m.129,52.189c-.009-.039.02-.042.044-.044-.017-.085-.125.072-.085-.129.173.1.205-.044.214-.219.12-.042.125.249.219.09.048.171-.168.225-.391.3m.389-33.655c.05.009.022.046,0,.046a1.272,1.272,0,0,1,.26.085c-.05.205-.426.013-.26-.131m.343,34.5a.86.86,0,0,1-.022-1.008c.129-.077.14.052.085.1.533-.155.125.415.31.754a.593.593,0,0,0-.374.153m9.359-59.36c.116-.013.144.061.129.173-.111.011-.186-.015-.173-.129.039.009.042-.015.044-.044m-2.156-3.282c-.284-.3.584-1.03.9-1.126.077.16-.039.3.061.461-.575.05-.623.815-1.161.835-.083-.146.112-.267.2-.171m-.789,2.547c.031-.059.116.022.219-.046-.035.133.074.127.039.26-.063.1-.181.044-.214.087-.173-.212.164-.171-.044-.3m.3,6.019c0,.251.011.5-.262.477-.09-.16.066-.361.044-.477Zm-.3-4.158c.118-.033.087.085.173.085,0,.116.017.249-.044.3-.112-.085-.227-.212-.129-.389m-2.945,4.982c.079-.136.116.14.258.085-.013.131.05.339-.085.345s-.127-.131-.216-.173c.033-.046.171-.2.044-.258m-1.041-4.289c.164.05.614-.072.652.219-.028.31-.474.09-.7.085-.024-.142.031-.2.044-.3m-.651,56.087c.059.116.249.1.262.26-.072.013-.074-.039-.129-.042.017.14.19.125.171.3a.32.32,0,0,0-.343.039c-.153-.293,0-.339.039-.562m-.691-49.288c-.063.116-.236-.017-.216-.129.149-.127.206.1.216.129m-.477,49.981c-.026.083.225-.249.391-.258-.072-.14-.1-.19-.046-.306-.011-.046-.085-.026-.085-.085a.315.315,0,0,0-.087.129.258.258,0,0,1-.214-.044c.3-.192.157-.063.562-.085-.1.087.061.171-.042.258,0,.125.116-.1.085.09a.191.191,0,0,1,.129-.044c-.087-.079-.247.418-.693.345m.737-.474c-.015-.061-.107-.035-.175-.044,0-.09.12-.055.09-.175h.129c.083.085.042.186.087.219.037.1-.3.024-.131,0m1.041.822c-.1.09-.254-.122-.348-.175a.235.235,0,0,0-.173.175.227.227,0,0,0-.129-.044c-.076-.026,0-.205-.09-.216.013-.153.164.107.175-.044.063.02,0,.039,0,.085.035.09.179-.077.258-.085-.02-.063-.055.017-.129,0a.23.23,0,0,0,.044-.173c.293.066.315.275.691.173a.319.319,0,0,1-.085.3.211.211,0,0,0-.129-.044v-.175c-.16.015-.12.192-.085.219m.691.044c-.1.116-.343,0-.477,0,.028-.118.223-.068.219-.216.131-.031.127.074.258.044.061.1-.109.162,0,.173m.608-.953c.12.013.044.055.044.258-.135.011-.2.094-.306.133-.077,0-.087-.057-.171-.044a.194.194,0,0,1,.171-.09c-.348-.3-.612.107-.776-.085-.031.037.02.151.042.219,0,.055-.26,0-.216-.133.07-.011.074.042.131.044a.851.851,0,0,1-.085-.258c.09.02.079-.063.085-.129.109.046.206-.133.258,0,.1-.028.1-.166.133-.262a.282.282,0,0,0,.214.044c-.111-.02-.122-.138-.175-.216a.679.679,0,0,1,.348-.26c.079.033.007.081,0,.129.225-.142.474.2.219.3a.37.37,0,0,0,.258.219c-.011.087-.116.085-.173.129m.044-59.511c.4-.129.118.485,0,0m.477,9.79V57.8c.063.039.168.035.129.175Zm.345,49.765a.271.271,0,0,1,.219.044c-.024.077-.275.166-.219-.044m.129-56.133c-.149-.009-.162-.151-.3-.171.009-.138-.028-.319.044-.391.359-.042.522.109.562.391-.094.066-.243.07-.3.171m.868-4.72c.146-.015.072.188.129.26h-.173a.384.384,0,0,0,.044-.26m.173,61.2c-.063-.037-.166-.033-.131-.173a.166.166,0,0,1,.219,0c0,.085-.12.055-.087.173m.345-.258c-.12-.009-.184-.079-.173-.219.09-.039.087.221.129.085.039,0,.042.02.044.044Zm-.127-60.464c-.059-.044-.085-.118-.175-.129.028-.177.175-.23.26-.348a.848.848,0,0,1,.173.129,1.164,1.164,0,0,0-.258.348m.735,16.414c-.116,0-.249.017-.3-.044-.1-.369.4-.289.3.044M391.86,107a.342.342,0,0,1-.09-.129,1.053,1.053,0,0,0-.214.129c-.109.046-.151-.188-.216-.044a.646.646,0,0,0-.129-.348.309.309,0,0,0,.474-.129c.133-.013.125.332.26.173.146.175-.136.227-.085.348m.085-1.041a.157.157,0,0,1,0-.258c-.072-.116-.116-.048-.258-.129-.048-.164.107-.125.085-.262a1.062,1.062,0,0,0,.391.131c-.1.048.129.376-.219.518m.216-52.968h.175c0,.077-.057.09-.046.173-.111.011-.14-.061-.129-.173m.391,53.965c-.009.094-.111.094-.219.085.017-.151.116-.109.219-.085m-.087,1.082c-.221-.077.028-.457.173-.3-.118.042-.127.19-.173.3m.216.044v-.173c.1.1.079-.066.216-.044.02.039.039.077.085.085-.037.107-.173.116-.3.131m.564-62.626c-.133.013-.092-.144-.131-.219h.131Zm.82,7.881c-.055-.1-.07-.245-.129-.345.23-.061.291.278.129.345m.262,54.92c-.273-.037.1-.337-.175-.219.011-.087.164-.042.175-.129.12.07-.061.195,0,.348m.909-61.113c.14-.011.21.052.219.173a.216.216,0,0,1-.262,0c-.007-.077.052-.09.044-.173m-.131,57.648c-.013.057-.109.035-.173.044a1.709,1.709,0,0,0,.173-.3c.052.007.037.079.046.129.05-.048.087-.037.085.046-.1-.074-.26-.017-.131.085m.087.214c-.1-.017-.037-.23,0-.258.16.035.035.177,0,.258m.044,2.6c.083-.127-.028-.037-.173-.085-.022-.138.2-.033.216-.129.127,0,.116.256-.044.214m-.131-45.3c.044-.109.308-.122.3.046a.676.676,0,0,1-.3-.046m.477-7.752c-.184-.028-.254-.177-.343-.3.079-.424.459-.085.343.3m1.43-5.758c.192.026.074.1.129.258-.1-.072-.2-.116-.129-.258m3.163,1.775c-.146-.042-.022-.079-.044-.216.155-.042.076.186.044.216m.562-2.167c.074.039.151.081.129.219-.12,0-.127-.107-.129-.219m2.641,1.6c-.195-.02-.175-.2-.087-.3.151-.015.16.225.087.3m.216,4.547c.2.02.284.153.262.391-.2.1-.284-.142-.262-.391m.8,2.328c-.2.225-.352-.188-.547-.039-.19-.319.387-.584-.12-.923.518-.212.529-.028.9.245-.2.232-.335.466-.234.717M411.61,51.3c.129-.3.387,0,.606,0a.927.927,0,0,1-.606,0m1.86.433a.317.317,0,0,1,.564.173c-.278.033-.378-.116-.564-.173m1.515-.866c.155-.011.23.061.216.216-.16.16-.337-.015-.216-.216m4.563,25.848c.348-.214-.033-.557.4-.52.12.223-.125.42.227.658-.205-.087-.435.122-.63-.138m.772-33.991c.367.269.249.505.313.754-.461.273-.864-.387-.313-.754m6.707,19.359c.011.127-.081.153-.129.219-.1-.044-.09-.2-.087-.348a1.013,1.013,0,0,0,.216.129m-.988,8.323a.7.7,0,0,1,.063-.912.7.7,0,0,1-.063.912m1.345-2.193c-.3.435-.711.866-.19,1.358-1.126-.5-.068-1.5.509-1.976a1.848,1.848,0,0,1,.3.938c-.214.042-.413-.192-.617-.319m1-1.209c.415-.087.431.262.505.584-.251.149-.525-.45-.505-.584m.761,31.506c-.074-.011-.1-.074-.085-.173h.131c.015.09-.028.114-.046.173m.864-31.208a2.063,2.063,0,0,1-1.572-1.028,3.294,3.294,0,0,1,.525-.968c.2.254.079.459.422.488-.052-.5.555-.7.975-.846.988.975-.085,1.97-.35,2.355m1.629,2.862c-.262-.26-.474-.52-.133-.741.166.271.363.059.52.4-.129.114-.258.227-.387.339M432.1,104.4v-.173a.093.093,0,1,1,0,.173m.822-.649c-.138.066-.162-.369.087-.348.015.133-.247.212-.087.348m1.041,3.03c.007-.109.144-.085.26-.085-.07.059-.164.186-.26.085m.431-1.773c.024-.127.188-.1.219-.216.07.044-.074.238-.219.216m.26,1.6c.02-.083.094-.109.09-.216.195,0,.046.269-.09.216m.824-.912c.057-.09-.02-.127.044-.258.057.009.057.129,0,.129,0,.1.109.094.216.087-.042.155-.129.026-.26.042m.649,1c-.063-.022-.107-.063-.171-.085.022-.063.063-.109.085-.173.12-.037.114.059.216.039a1.349,1.349,0,0,0-.131.219m.365-58.337c-.085-.1-.168-.195-.256-.291.3-.282.553-.042.815.149-.1.085-.2.168-.293.254-.083-.1.053-.179.109-.269-.116-.1-.249.072-.376.157m.547,53.226c0-.059.007-.12-.046-.129.092-.1.23.116.3.173-.035.1-.1-.118-.258-.044m.345-1.211c.02-.138.188-.085.216,0-.011.1-.188.024-.216,0m.562,4.764c-.028-.146.072-.16.175-.173.031.144-.072.155-.175.173m3.284-70.628-.339-.389c.131-.114.258-.225.391-.339.35.269.144.5-.052.728m1.15,24.978c-.227-.289.254-.529.516-.785.076.278-.192.533-.516.785m1.1-18.043a.583.583,0,0,1,.149-.813c.354.238.107.435.23.656a.6.6,0,0,0-.378.157m2.173-21.539c-.254-.232-.142-.437.136-.632.254.232.144.439-.136.632m8.329-17.988c.168-.219.317-.157.474-.24a.6.6,0,0,0,.157.378c-.232.251-.439.14-.632-.138" transform="translate(777.262 500)" fill="#1b365d"/>
    <path id="Path_194" data-name="Path 194" d="M373.087,44.4l-.009.094c.015-.042.028-.079.009-.094" transform="translate(777.55 552.665)" fill="#1b365d"/>
    <path id="Path_195" data-name="Path 195" d="M349.221,103.767a89.31,89.31,0,0,1,4.346-14.943c1.216-3.017,2.884-4.936,6.231-5.247,7.188-.667,14.37-1.412,21.552-2.127,6.371.114,7.49.9,9.307,6.858a11.127,11.127,0,0,1,.273,1.111c.686,3.4,1.438,6.79,2.031,10.2.059.031.122.061.129.12a.173.173,0,0,1-.081.138c.039.23.092.459.129.689.566,3.439,2.488,5.291,5.793,6.211,6.327,1.758,12.306.411,18.259-1.618a2.813,2.813,0,0,0,2.022-3.247,8.941,8.941,0,0,0-.529-2.6c-.146-.348-.308-.689-.457-1.034a.124.124,0,0,1-.147.072c.011-.168-.1-.171-.044-.3.092.085.116.129.162.171-1.349-3.1-2.814-6.154-4.034-9.3C410.044,78.287,406.034,67.609,402,56.943c-3-7.94-5.82-15.953-9.022-23.81A133.563,133.563,0,0,1,384.9,6.653C384.047,2,380.571-.078,375.853.925c-2.477.529-4.993.949-7.4,1.707-3.647,1.15-7.064,2.425-8.1,7.009-.77,3.413-2.525,6.6-3.872,9.886-2.46,5.973-5.048,11.9-7.378,17.92-3.013,7.8-5.763,15.7-8.747,23.508-1.585,4.143-3.749,8.078-5.1,12.287-3.174,9.877-5.665,20-11.128,28.994a4.013,4.013,0,0,0-.367,1.08c-.645,2.481-.181,3.85,2.142,5.015a14.912,14.912,0,0,0,5.332,1.823,90.073,90.073,0,0,0,10.588-.074c5.24-.245,6.323-1.211,7.4-6.314M408.9,96.408c.1-.14.245.037.348.044-.074.114-.3.017-.348-.044m.564,3.161a.242.242,0,0,1,.216.219c-.175.028-.247-.046-.216-.219m2.9-10.653c.291.057.2.352.3.518.009-.042-.164.1-.431.044a1.821,1.821,0,0,1,.129-.562m-2.556-.52c-.031.1-.166.094-.171.216-.079-.011-.1-.074-.09-.173.153-.039.1-.007.26-.044m-.477,6.8a.252.252,0,0,0,.171.044c-.024.039-.05.077,0,.085-.024.129-.09-.042-.171,0Zm-.216-.518c.092.052.12.166.173.258a2.025,2.025,0,0,1-.3.131c-.022-.109,0-.262-.129-.26.077-.133.186-.074.26-.129m-.518,9.615c-.249.055-.527-.369-.262-.564s.621.481.262.564m-.608-2.86c.136-.022.1.131.26.085.024.254-.378.435-.477.173,0-.153.166-.149.216-.258m-.26-29.149c.077.039.1.136.087.258a.125.125,0,0,0-.131.09c-.19-.125.055-.168.044-.348m-1.17,22.391c.039.028.16.1.131-.044.057.044.247-.037.26-.173a3,3,0,0,1,.433.391c-.011.079-.3.1-.175.173-.011.1-.116-.05-.173-.044a.207.207,0,0,0,.044-.129c-.21.055-.114.221-.435.3a.534.534,0,0,0-.127-.216c-.033-.133.044-.157.042-.26m-2.643,12.606c-.033.1-.267.042-.217-.09.1-.1.118.07.217.09m-.562-1.69v.173c-.077.081-.109-.035-.26,0a.275.275,0,0,1,.26-.173m-1.9-8.88c-.007.079.052.092.044.175-.149.017-.249-.015-.219-.175ZM401.1,78.953c-.018.1.079.094.042.216a.366.366,0,0,1-.26-.044c.007-.125.057-.206.219-.173m-1.6,1.6c.046-.166.205.052.173-.175.044.031.044.1.129.09,0,.042-.05.033-.087.042.042.118.155-.074.219.044.031-.116-.09-.083-.131-.129a.367.367,0,0,1,.26-.09c.052.234-.317.38-.389.219-.035.009-.044.044-.085.044.028.044.1.044.085.129h-.216c.015-.1-.081-.094-.042-.216.05-.007.074.011.085.044m-.044.477c.171.046.129.206.087.348-.116,0-.094-.138-.217-.131.037-.077.175-.055.129-.216m-1.384,21.827c.026.118-.092.085-.133.129a.185.185,0,0,1,.044.133c-.164-.013-.127-.192-.173-.219.007-.092.184-.017.262-.044m-.7-21.871c.1.085.223.151.173.389-.131.055-.216.157-.343.216-.155-.131-.044-.573.17-.606m-.606,21.309c.1.267-.168.131-.173.348-.127-.131.09-.282.173-.348m-2.9-.78c-.122-.057.037-.192.044-.258.092.013-.063.116.085.129.015.1-.122.046-.129.129m.477-4.591c0-.042-.052-.033-.085-.042-.022-.151.107-.151.171-.219.166.037.07.289-.085.26M394.3,87.01c-.046.313.129.022.219.129,0,.19-.079.3-.3.26.017-.055.077-.07.085-.129-.053,0-.286.063-.258-.219a.369.369,0,0,1,.258-.042m-.431,3.334a.265.265,0,0,1-.348.173.224.224,0,0,1,.348-.173m.173.131c.092.166-.181.186-.044.258-.151.162-.319-.234-.433,0-.057-.011-.039-.107-.044-.173.2.107.256-.136.52-.085m-1.734-.52c.181-.022.21.109.219.258-.208.052-.306-.149-.219-.258m-.345,2.9a.184.184,0,0,1,.085.173c-.138-.007-.258-.031-.258-.173-.077.063-.1.039-.087-.085.138-.048.142.256.26.085m-19.23-11.086a.267.267,0,0,0,0-.216h.216c.015.081.092.109.087.216-.153.052-.166.1-.3,0M362.312,60.1c1.85-4.982,3.9-9.89,5.888-14.82,1.183-2.934,2.42-5.85,3.642-8.771.52-1.244,1.071-2.473,1.607-3.706.341.009.686.017,1.03.022.743,2.254,1.554,4.484,2.223,6.755,2,6.8,3.964,13.6,5.925,20.413,1.135,3.944.319,5.28-3.706,5.33-4.558.057-9.125-.112-13.675-.4-3.358-.221-4.154-1.533-2.934-4.818m-9.025,1.963h.258a.251.251,0,0,0,.129.26.043.043,0,0,1-.085,0c0,.131-.081.011-.173.085-.059-.042-.085-.116-.173-.131-.018-.1.079-.092.044-.214m-23.779,46.862c-.024-.14.031-.2.044-.3a1.474,1.474,0,0,1,.433.044c-.081.168-.271.348-.477.258m6.281-2.468c.07,0,.166-.022.171.042.05.155-.264.118-.171-.042m-.173.562a.441.441,0,0,1,.258-.129c-.044.092-.173.21-.258.129m.173.477c.015-.055.074-.066.085-.129.133-.031.083.118.219.085-.074.131-.16.05-.3.044m.477-2.077c.02-.083.092-.109.085-.219a.261.261,0,0,1,.219.348c-.135-.011-.2-.094-.3-.129m4.676-.78a.093.093,0,1,1,0,.173Zm.26,4.633c-.118.033-.087-.085-.173-.085.037-.127.066-.048.173-.044Zm.477-.518c.149-.02.129.129.216.173-.079.116-.258-.031-.216-.173" transform="translate(718.729 500.804)" fill="#1b365d"/>
    <path id="Path_196" data-name="Path 196" d="M228.585,26.459c-2.079,20.4-.063,40.782.446,61.162.081,3.231,1.237,6.423,1.694,9.661a31.755,31.755,0,0,1,.306,6.782,3.781,3.781,0,0,1-1.856,2.652c-5.793,2.641-11.644,4.86-18.292,3.3-4.5-1.058-5.957-3.074-5.417-7.7.571-4.88.774-9.812.986-14.729.157-3.664.136-7.337.085-11.005s-.256-7.333-.343-11c-.127-5.057-.184-10.113-.321-15.17-.087-3.282-.249-6.561-.415-9.84-.214-4.294-.623-8.585-.652-12.877-.039-5.826.258-11.65.3-17.477.026-4.3,1.1-5.527,5.4-6.167,4.13-.608,8.231-1.406,12.341-2.123,4.628-.8,7.42,1.718,7.07,6.344-.459,6.065-.885,12.129-1.329,18.194" transform="translate(577.939 502.103)" fill="#1b365d"/>
    <path id="Path_197" data-name="Path 197" d="M246.232,77.686a22.831,22.831,0,0,0-2.35,4.974c-.61,1.78-1.283,3.542-2.035,5.267-.38.877-1.062,2-2.177,1.944-.96-.039-1.349-.888-1.677-1.655a22.639,22.639,0,0,1-1.633-4.617,22.558,22.558,0,0,0-2.409-6.408c-.505-.936-.949-1.911-1.463-2.844a6.965,6.965,0,0,1-.818-2.748c.667-1.106,1.5-.855,2.481-.409a54.471,54.471,0,0,1,5.71,14.138,8.83,8.83,0,0,0,.879-1.83,13.885,13.885,0,0,1,1.5-4.138,20.214,20.214,0,0,0,2.147-6.248c.133-1.135.815-1.508,1.928-1.2a4.751,4.751,0,0,1,.833.391,38.11,38.11,0,0,1,3.137,8.063c.33,1.01.63,2.031.982,3.039a2.5,2.5,0,0,0,1.3,1.578c1.132-2.61,2.162-5.269,3.428-7.807,1.24-2.479,2.046-5.179,3.693-7.438,1.539.171,1.769.422,1.683,1.7A5.258,5.258,0,0,1,260.613,74a70.516,70.516,0,0,0-3.443,6.784,19.331,19.331,0,0,0-1.4,3.924,13.635,13.635,0,0,1-2.457,4.48,1.228,1.228,0,0,1-2.09.022,2.439,2.439,0,0,1-.455-.579c-.888-1.836-2.1-3.509-2.6-5.549-.35-1.428-.9-2.809-1.375-4.2a12.429,12.429,0,0,0-.562-1.189" transform="translate(609.81 582.723)" fill="#1b365d"/>
    <path id="Path_198" data-name="Path 198" d="M134.735,73.431a4.769,4.769,0,0,0,0,1.157,17.338,17.338,0,0,1,.394,5.133,32.284,32.284,0,0,0,.59,5.962,15.033,15.033,0,0,0,2.94.1c1.777-.278,3.537-.658,4.8-2.2a7.949,7.949,0,0,0,1.815-5.951,4.451,4.451,0,0,0-2.35-3.539,8.991,8.991,0,0,0-8.185-.662m-.138,16.3a2.192,2.192,0,0,1-2.138-2.473c0-.334.026-.662.015-.986-.122-3.192-.19-6.388-.389-9.571a14.78,14.78,0,0,0-1.078-4.768c-1.272-3.052,4.123-1.865,5.49-2.081a10.675,10.675,0,0,1,10.308,3.787,5.533,5.533,0,0,1,1.141,2.4,12.324,12.324,0,0,1-.588,6.5,8.978,8.978,0,0,1-5.9,5.739,9.653,9.653,0,0,1-3.607.557,5.6,5.6,0,0,0-3.255.894" transform="translate(490.174 582.664)" fill="#1b365d"/>
    <path id="Path_199" data-name="Path 199" d="M254.815,72.551a6.551,6.551,0,0,0-1.771,3.583c-.433,1.568-.752,3.17-1.108,4.755-.081.359-.47.713.055,1.207,1.191-.074,2.49-.072,3.762-.251,1.316-.19,2.72.14,4.1-.547-1.456-2.8-1.408-5.936-2.667-8.725-.824-.007-1.546-.015-2.372-.022M260.6,84.538c-1.06.072-1.944.195-2.822.173a42.02,42.02,0,0,0-7.389.7c-1.15.175-1.318,5.645-3.548,3.811-.8-.652-.319-2.311-.017-3.1.726-1.911,1.565-3.782,2.322-5.682a19.355,19.355,0,0,0,.837-2.569c.271-1.106.464-2.237.656-3.36a8.356,8.356,0,0,1,2.339-4.744,4.774,4.774,0,0,1,1.69-.286,18.267,18.267,0,0,0,3.918.223,3.833,3.833,0,0,1,1.054.232,2.855,2.855,0,0,1,.844,1.887,33.542,33.542,0,0,0,2.409,9.475,8.534,8.534,0,0,1,.431,1.4c.247,1.119.483,2.241.68,3.367.14.8.216,1.62.3,2.431a2.059,2.059,0,0,1-1.137,2.024,1.186,1.186,0,0,1-1.78-.658,4.628,4.628,0,0,1-.114-1.213,11.061,11.061,0,0,0-.671-4.11" transform="translate(627.287 582.391)" fill="#1b365d"/>
    <path id="Path_200" data-name="Path 200" d="M109.953,83.192c-1.067-3.282-2.066-6.373-3.094-9.455-.057-.179-.361-.275-.551-.407a2.082,2.082,0,0,0-.708.286c-1.533,1.583-2.846,3.268-3.067,5.61a22.548,22.548,0,0,1-.8,3.295,17.2,17.2,0,0,0,8.225.671m.829,3.411a6.509,6.509,0,0,0-3.415-.269,5.011,5.011,0,0,1-2.435-.12,14.349,14.349,0,0,0-4.069-.2c-1.246,1.336-1.052,3.163-1.941,4.663a2.544,2.544,0,0,1-.872.164c-1-.153-1.524-.754-1.4-1.646a9.71,9.71,0,0,1,.509-2.149,106.527,106.527,0,0,0,3.275-10.8c.361-1.355.7-2.709,1.933-3.6a.956.956,0,0,0,.328-.627,1.824,1.824,0,0,1,2.121-1.613,8.052,8.052,0,0,0,2.632-.256,1.526,1.526,0,0,1,1.747,1.032c.638,1.856,1.338,3.706,1.812,5.608a48.906,48.906,0,0,0,2.291,6.465,10.059,10.059,0,0,1,.678,5.752,1.007,1.007,0,0,1-1.7.577,3.65,3.65,0,0,1-1.493-2.98" transform="translate(449.623 583.152)" fill="#1b365d"/>
    <path id="Path_201" data-name="Path 201" d="M318.96,72.959a4.791,4.791,0,0,0-.254,2.414c.092.892.039,1.8.072,2.7a4.549,4.549,0,0,0,.271,2.374c2.035.645,3.725-.234,5.382-.982.474-.542.942-1.01,1.323-1.543a2.737,2.737,0,0,0-.468-3.758,5.183,5.183,0,0,0-2.875-1.3,10.308,10.308,0,0,0-3.452.092m3.157,10.586a9.7,9.7,0,0,0,2.93,3.485,7.477,7.477,0,0,1,1.668,1.869c.512.739-1.731,2.232-2.65,1.369-.656-.619-1.3-1.253-1.937-1.891-.687-.7-1.358-1.4-2.164-2.239a22.062,22.062,0,0,1-.888,2.376c-.243.492-.584,1.021-1.3.942-.627-.063-1.054-.577-1.15-1.388-.243-2.033-.5-4.064-.717-6.1a19.53,19.53,0,0,1-.066-1.961,26.47,26.47,0,0,0-.455-6.86,4.753,4.753,0,0,1-.024-1.465,1.593,1.593,0,0,1,1.3-1.576,5.144,5.144,0,0,1,1.414-.367c1.965.09,3.948-.1,5.87.488a7.2,7.2,0,0,1,4.869,4.18,4.43,4.43,0,0,1-.249,4.235,8.786,8.786,0,0,1-4.619,4.193c-.54.184-1.067.413-1.834.713" transform="translate(709.035 582.721)" fill="#1b365d"/>
    <path id="Path_202" data-name="Path 202" d="M227.15,82.079c-.49-1.55-.964-2.853-1.31-4.184a12.97,12.97,0,0,0-1.561-3.94c-.514.048-1.043.1-1.576.142a35.484,35.484,0,0,0-2.582,8.69c2.418.14,4.55-.894,7.029-.708m.772,3.592a35.384,35.384,0,0,0-8.985.562c-.907.221-1.065,1.893-1.852,2.331-1.478.829-1.972-1.4-1.471-2.5,1.705-3.741,2.643-7.728,3.872-11.622a13.289,13.289,0,0,1,1.248-2.654,2.1,2.1,0,0,1,1.642-.944c3.229-.4,3.609-.208,5.1,2.818a15.581,15.581,0,0,1,.842,2.035c1.038,3.19,2.053,6.386,3.069,9.584a3.961,3.961,0,0,1,.254.942,3.3,3.3,0,0,1-.111,1.2c-.188.54-.463,1.1-1.1,1.218a1.357,1.357,0,0,1-1.395-.82c-.369-.625-.678-1.294-1.115-2.149" transform="translate(590.539 583.848)" fill="#1b365d"/>
    <path id="Path_203" data-name="Path 203" d="M75.073,73.644c-.5.188-.971.216-1.161.463-1.828,2.435-2.776,5.291-3.944,8.214a18.089,18.089,0,0,0,6.65-.094,6.008,6.008,0,0,0-.282-2.978,17.847,17.847,0,0,1-.566-2.372c-.23-1.019-.444-2.044-.7-3.233m2.32,11.913c-2.785-.173-5.579.378-8.314-.606-.028-.009-1.622,4.093-1.742,4.362-.376.874-.606,1.259-1.57,1.045-1.657-.369-.785-1.821-.4-2.943.982-2.857,2.446-6.922,3.55-9.733.807-2.051,1.863-4.005,2.927-6.259.38-.8,3.216-1.012,3.909-1.143a1.373,1.373,0,0,1,1.578.881,4.576,4.576,0,0,1,.369,1.174,67.884,67.884,0,0,0,1.624,6.935c.236,1.122.413,2.25.579,3.386a42.827,42.827,0,0,0,1.515,5.181,4.178,4.178,0,0,1,.208,1.93,1.3,1.3,0,0,1-1.065,1.185,1.073,1.073,0,0,1-1.218-.625,20.035,20.035,0,0,1-.848-2.027,10.639,10.639,0,0,0-1.1-2.744" transform="translate(411.855 583.333)" fill="#1b365d"/>
    <path id="Path_204" data-name="Path 204" d="M200.082,70.292a1.621,1.621,0,0,1,2.1-.085,1.891,1.891,0,0,1,.84,1.683,10.649,10.649,0,0,1-.129,2.453,34.258,34.258,0,0,0-.453,5.382,26.048,26.048,0,0,1-.531,4.873c-.737,2.724-2.158,4.985-5.273,5.533-.324.055-.634.164-.953.238a5.715,5.715,0,0,1-4.058-.479,7.707,7.707,0,0,1-3.83-3.319,10.224,10.224,0,0,1-.689-1.836,24.185,24.185,0,0,1-.756-7.536c.12-2.046.254-4.09.42-6.132.072-.927.63-1.43,1.4-1.382a1.592,1.592,0,0,1,1.627,1.524,14.8,14.8,0,0,1-.232,2.442,26.782,26.782,0,0,0,.142,9.538,4.841,4.841,0,0,0,4,4.165,4.546,4.546,0,0,0,4.932-2.32,5.619,5.619,0,0,0,.754-2.313c.181-3.273.389-6.541.568-9.812a7.8,7.8,0,0,1,.118-2.619" transform="translate(556.002 582.66)" fill="#1b365d"/>
    <path id="Path_205" data-name="Path 205" d="M209.177,72.156a1.217,1.217,0,0,1-.16.6c-.678,1.24-1.887.2-2.746-.011-1.48-.372-2.879.411-4.051,1.229a3.34,3.34,0,0,0-1.279,3.288,1.214,1.214,0,0,0,.942,1.014,9.025,9.025,0,0,0,.977.1,12.754,12.754,0,0,1,3.961,1.255c2.164.953,2.711,2.72,2.538,4.829a5.533,5.533,0,0,1-5.78,5.45c-1.307.042-2.617.118-3.929.186a6.386,6.386,0,0,1-3.069-.671c-.732-.341-.752-2.481-.153-2.936.735-.558,1.968.1,2.724.262a14.259,14.259,0,0,0,3.281.289,9.281,9.281,0,0,0,2.4-.378,2.889,2.889,0,0,0,1.749-2.739,1.76,1.76,0,0,0-1.019-1.581c-.815-.361-1.672-.638-2.516-.936a2.565,2.565,0,0,0-.49-.031c-1.541-.245-3.181-.378-3.931-2.059-.916-2.051-1.13-4.141.262-6.082a8.333,8.333,0,0,1,7.18-3.605c1.047.009,3.1,1.229,3.1,2.525" transform="translate(567.503 582.597)" fill="#1b365d"/>
    <path id="Path_206" data-name="Path 206" d="M274.368,72.766a28.815,28.815,0,0,0-3.408.31,1.92,1.92,0,0,0-1.452,2.816,2.559,2.559,0,0,0,2.105,1.836,12.74,12.74,0,0,1,4.808,1.751,3.006,3.006,0,0,1,1.463,2.134,8.264,8.264,0,0,1-.042,4.1,5.46,5.46,0,0,1-3.776,3.865,9.354,9.354,0,0,1-6.27-.127,3.043,3.043,0,0,1-1.845-1.876,2.057,2.057,0,0,1,.05-1.189,1.161,1.161,0,0,1,1.6-.667c.289.155.536.378.807.555a5.439,5.439,0,0,0,4.941.477,2.517,2.517,0,0,0,1.817-2.379c.028-.326.048-.656.046-.984a1.751,1.751,0,0,0-1.4-2.029,12.932,12.932,0,0,0-2.612-.632,3.941,3.941,0,0,1-3.05-1.817c-.225-.343-.518-.636-.763-.964a3.793,3.793,0,0,1-.754-3.686,7.379,7.379,0,0,0,.14-.951,2.977,2.977,0,0,1,1.624-2.282,12.5,12.5,0,0,1,5.232-1.2c.82-.009,1.644.033,2.46.079a5.455,5.455,0,0,1,1.209.179,1.453,1.453,0,0,1,1.049,1.484,1.388,1.388,0,0,1-1.266,1.29c-.9.046-1.8-.007-2.7-.011,0-.028-.009-.055-.009-.083" transform="translate(650.392 582.829)" fill="#1b365d"/>
    <path id="Path_207" data-name="Path 207" d="M144.273,73.769A5.883,5.883,0,0,0,144.4,76.7a2.319,2.319,0,0,0,1.854.789c.818.015,1.637.013,2.457-.026a3.852,3.852,0,0,1,2.121.369,3.282,3.282,0,0,1,.186.754c0,1.331-.439,1.893-1.646,1.948-.982.044-1.968-.048-2.949-.05-.557,0-1.113.05-1.769.083a13.754,13.754,0,0,0,.5,5.68,3.058,3.058,0,0,0,2.584,1.073c1.014.059,2.217-.227,3.192.151,1.038.4,1.67,2.075.171,2.468a4.29,4.29,0,0,1-1.686.289c-2-.319-4.079.348-6.172-.595a5.852,5.852,0,0,1-1.272-3.467,90.119,90.119,0,0,1-.518-9.56c0-1.3-.26-2.6-.308-3.907-.057-1.4.431-1.9,1.819-2.127,1.452-.234,2.9-.533,4.355-.7a17.448,17.448,0,0,1,2.927-.017,1.7,1.7,0,0,1,1.316,1,1.459,1.459,0,0,1-.1,1.62,1.193,1.193,0,0,1-1.288.479,11.315,11.315,0,0,0-5.9.826" transform="translate(502.419 582.79)" fill="#1b365d"/>
    <path id="Path_208" data-name="Path 208" d="M119.013,78.475c-1.668-1.513-2.639-3.581-1.233-5.678s4.967-4.04,7.973-3.216a5.486,5.486,0,0,1,2.335,1.281,1.393,1.393,0,0,1-.114,2.3,2.473,2.473,0,0,1-.711.3,5.479,5.479,0,0,1-1.021-.636,2.123,2.123,0,0,0-2.49-.448,24.142,24.142,0,0,0-2.271.914,7.085,7.085,0,0,0-1.248,1.052,3.041,3.041,0,0,0,1.81,2.829c.586.275,1.2.5,1.8.748A18.991,18.991,0,0,1,126.313,79c2.11,1.288,2.7,2.919,2.315,5.433-.8,5.288-8.058,8.19-12.083,4.456a1.911,1.911,0,0,1-.359-2.267,1.238,1.238,0,0,1,1.86-.522,5.491,5.491,0,0,0,2.457,1.539,2.973,2.973,0,0,0,2.763-.54c.488-.433,1.067-.763,1.563-1.189a3.4,3.4,0,0,0,1.084-2.151,1.887,1.887,0,0,0-.739-1.961,5.726,5.726,0,0,0-1.9-1.073,9.766,9.766,0,0,1-4.263-2.245" transform="translate(472.565 582.308)" fill="#1b365d"/>
    <path id="Path_209" data-name="Path 209" d="M299.177,77.991c.859.332,1.294.966.573,2.1-.743,1.163-4.239.807-5.47.92-.151.477-.422.874-.367,1.22a9.362,9.362,0,0,1-.022,2.923,12.582,12.582,0,0,0,.153,2.538c.831.024,1.55.074,2.269.072a15.81,15.81,0,0,0,2.21-.1,2.382,2.382,0,0,1,2.208.684,1.785,1.785,0,0,1-.474,1.852,3.8,3.8,0,0,1-1.574.582,5.622,5.622,0,0,1-1.474.035,15.184,15.184,0,0,0-4.6.361,2.288,2.288,0,0,1-1.393-2.376c.044-3.69-.009-7.383,0-11.075,0-1.4.061-2.79.1-4.187a6.258,6.258,0,0,1,.131-1.465,1.774,1.774,0,0,1,1.734-1.487,21.027,21.027,0,0,0,4.351-.752,17.073,17.073,0,0,1,3.172-.26c.741-.011.874.192,1.458,1.384-.289,1.043-1.156,1.3-2.066,1.465-1.452.262-2.908.485-4.366.732a4.119,4.119,0,0,0-.944.234,1.178,1.178,0,0,0-.778,1.146c.011.971.057,1.939.092,3.065.223.07.529.273.783.221a9.683,9.683,0,0,1,4.291.168" transform="translate(680.441 582.532)" fill="#1b365d"/>
    <path id="Path_210" data-name="Path 210" d="M299.059,85.367a2.927,2.927,0,0,1,2.186.481,9.081,9.081,0,0,0,2.035,1.073,3.7,3.7,0,0,0,3.36-.973c.99-.907,2.37-2.761,1.419-3.953-.649-.813-2.239-1.17-3.181-1.517-2.053-.752-3.773-1.113-4.969-3.161a4.456,4.456,0,0,1,1.076-5.92,5.673,5.673,0,0,1,.807-.553c2.374-1.27,5.048-1.915,7.665-.547a8.36,8.36,0,0,1,.883.6,1.693,1.693,0,0,1-.359,1.74,1.28,1.28,0,0,1-2.073.319c-.752-.512-1.589-.118-2.32-.463-1.428.411-2.82.866-3.531,2.243a2.222,2.222,0,0,0,1.9,2.348,26.824,26.824,0,0,1,5.332,2.449c5.175,2.606-.212,9.663-4.058,10.339a6.83,6.83,0,0,1-4.829-.986,3.8,3.8,0,0,1-1.428-1.508,2.044,2.044,0,0,1,.085-2.007" transform="translate(689.385 582.48)" fill="#1b365d"/>
    <path id="Path_211" data-name="Path 211" d="M173.024,84.9a1.684,1.684,0,0,1,.492.1c1.3.776,1.469,1.782.47,2.785a2.747,2.747,0,0,1-.59.439,9.153,9.153,0,0,1-7.621.645c-3.316-1.148-4.939-3.867-5.208-7.254a12.41,12.41,0,0,1,.547-5.745c1.307-3.122,5.984-4.733,9.044-5.225a4.755,4.755,0,0,1,3.778.636,1.4,1.4,0,0,1,.522,1.729,1.348,1.348,0,0,1-1.578.881c-2.481-.735-5.907.33-7.953,1.852-4.449,3.29-.6,11.79,4.908,10.35a33,33,0,0,0,3.19-1.2" transform="translate(525.355 583.659)" fill="#1b365d"/>
    <path id="Path_212" data-name="Path 212" d="M331.457,88.649a30.123,30.123,0,0,1-2.551-5.929,35.1,35.1,0,0,0-2.969-6.749,10.076,10.076,0,0,0-1.172-1.561,2.962,2.962,0,0,1-.7-3.157c1.224-.732,1.624-.75,2.363-.007a5.353,5.353,0,0,1,.907,1.159,47.551,47.551,0,0,1,3.537,7.293c.457,1.312.977,2.6,1.513,4.014.853-.291,1.041-1.093,1.384-1.635,1.408-2.206,2.713-4.477,4.034-6.742.367-.636.632-1.331.986-1.979.378-.713.807-1.4,1.209-2.094a3.753,3.753,0,0,1,1.069-.059c1.255.367,1.635,1.1,1.012,2.212-1.316,2.357-2.717,4.674-4.086,7.007-.5.846-1.028,1.679-1.524,2.527-.986,1.705-1.95,3.424-2.943,5.124a1.464,1.464,0,0,1-2.07.575" transform="translate(719.176 583.861)" fill="#1b365d"/>
    <path id="Path_213" data-name="Path 213" d="M152.916,86.494a6.184,6.184,0,0,0,3.008-.157c1.06-.267,3.491.151,3.491,1.642,0,1.292-1.88,1.642-2.844,1.629a18.816,18.816,0,0,0-4.4.33,1.409,1.409,0,0,1-1.727-1.038,13.915,13.915,0,0,1-.82-4.576c.009-1.31.079-2.628.068-3.942a37.141,37.141,0,0,0-.815-9.036,1.335,1.335,0,0,1,.905-1.548,1.673,1.673,0,0,1,1.954.636,4.111,4.111,0,0,1,.411,1.4c.136,2.785.676,5.536.5,8.345-.111,1.721-.035,3.452,0,5.173a5.2,5.2,0,0,0,.273,1.141" transform="translate(511.557 582.716)" fill="#1b365d"/>
    <path id="Path_214" data-name="Path 214" d="M228.949,71.3c-.022,2.438-.092,4.81-.057,7.184a43.138,43.138,0,0,0,.256,6.928,14.409,14.409,0,0,0,4.2.042c.571-.057,1.128-.184,1.7-.243a1.616,1.616,0,0,1,1.323,2.838c-.94.84-2.89.459-4.062.518a14.715,14.715,0,0,0-4.134.463,1.445,1.445,0,0,1-1.821-1.211,28.569,28.569,0,0,1-.359-3.662c-.055-2.457-.022-4.917-.015-7.376,0-1.474.042-2.949.035-4.421a1.714,1.714,0,0,1,.844-1.653c.8-.474,1.395-.12,2.092.592" transform="translate(603.039 583.621)" fill="#1b365d"/>
    <path id="Path_215" data-name="Path 215" d="M79.517,86.8a9.668,9.668,0,0,0,3.054.278c.818.026,1.642.015,2.455.094a1.161,1.161,0,0,1,1.045,1.174,1.452,1.452,0,0,1-.826,1.622,1.96,1.96,0,0,1-.706.162c-2.206-.157-4.414-.269-6.609-.522-1.347-.16-1.692-.632-1.718-1.941q-.056-2.951-.022-5.9A75.7,75.7,0,0,0,75.995,71.7a1.529,1.529,0,0,1,1.213-1.622,1.347,1.347,0,0,1,1.694,1,8.345,8.345,0,0,1,.044,1.218A22.031,22.031,0,0,0,79,75.249a18.153,18.153,0,0,1,.1,4.9c-.256,2.048.166,4.066.149,6.1,0,.146.133.286.265.549" transform="translate(425.133 583.074)" fill="#1b365d"/>
    <path id="Path_216" data-name="Path 216" d="M156.28,78.877q.036-3.692.068-7.392c0-.247-.011-.5.009-.739a1.331,1.331,0,0,1,1.071-1.2,1.456,1.456,0,0,1,1.627.811,6.742,6.742,0,0,1,.291,1.92c-.015,2.96-.074,5.918-.142,8.876a26.8,26.8,0,0,0,.33,6.624,2.618,2.618,0,0,1-.557,2.079,1.118,1.118,0,0,1-1.272.54,1.553,1.553,0,0,1-.868-.763,9.452,9.452,0,0,1-.665-3.609c.052-2.383.055-4.766.079-7.151Z" transform="translate(520.249 582.47)" fill="#1b365d"/>
    <path id="Path_217" data-name="Path 217" d="M170.868,70.522a1.739,1.739,0,0,1,1.314-.24,1.042,1.042,0,0,1,.9,1.021,10.414,10.414,0,0,1-.018,1.224,68.759,68.759,0,0,0,.315,11.541c.21,1.484.566,3.295-.107,4.709s-2.562,1.648-2.9-.109a8.037,8.037,0,0,1-.063-2.871,15.853,15.853,0,0,0-.068-4.407,39.524,39.524,0,0,1-.214-5.868c.033-1.414-.361-4.134.84-5" transform="translate(536.647 583.333)" fill="#1b365d"/>
    <path id="Path_218" data-name="Path 218" d="M204.458,83.221a8.5,8.5,0,0,1,.411-1.281c.669-1.478,1.36-2.949,2.1-4.4a3.356,3.356,0,0,1,.923-1.065,1.211,1.211,0,0,1,1.572.048,1.279,1.279,0,0,1,.52,1.281,1.359,1.359,0,0,1-.083.479c-1.03,2.022-2.057,4.053-3.122,6.051-.387.73-.833.918-1.358.739-.689-.236-.99-.7-.962-1.854" transform="translate(577.528 590.399)" fill="#1b365d"/>
    <path id="Path_219" data-name="Path 219" d="M120.032,72.7c-.087-.173.125-.824.389-.488-.341.177-.195.247-.389.488m-.072.428c-.155-.035-.319.046-.466-.109.151-.122.289.007.439-.09.024.042,0,.079.031.122-.042.022-.024.048,0,.076m-1.515,1.24a.455.455,0,0,1,.181-.3c.094.072.07.136.1.206-.094,0-.19.092-.286.1m-.73-.844c.107-.024.225-.2.319-.057-.111.114-.225.206-.319.057m-1.559,2.978c.127-.1.256-.26.374-.249.055.127-.236.477-.374.249m-.776.9c-.063-.164.466-.665.632-.549ZM114,78.451c.092.118.142.024.144.168-.133.175-.339-.061-.144-.168m-.321,1.679c-.107-.1.271-.5.38-.33l-.38.33m-.711-.564c-.14-.184.063-.269.223-.341.035.12-.085.232-.223.341m.929-.807c-.055.05-.114.1-.168.146a.119.119,0,1,1,.168-.146m-2.547-4.812c-.1-.208.365-.372.4-.568.109.208-.35.372-.4.568m-.19-1.242c.055-.05.111-.1.166-.146.1.072.07.136.1.2-.1.111-.184.009-.271-.057m-.619.313c-.1-.151.09-.409.23-.42.044.149-.081.282-.23.42m12.77-2.908a1.687,1.687,0,0,0-1.644-.1,1.986,1.986,0,0,0-.389.3,26.245,26.245,0,0,0-4.7,4.285,4.131,4.131,0,0,1-1.869,1.6l-3.205-3.647a.463.463,0,0,1-.245-.142.317.317,0,0,1,.063-.068c-.037-.044-.077-.085-.116-.129a.541.541,0,0,1-.142.14c-.07-.079-.02-.181.052-.247-.192-.216-.383-.435-.577-.654a2.775,2.775,0,0,0-2.029-1.226,1.612,1.612,0,0,0-1.395.488c.037.081-.055.195-.153.219a1.316,1.316,0,0,0,.3,1.489,2.747,2.747,0,0,0,.5.542,11.418,11.418,0,0,1,2.361,2.331,1.066,1.066,0,0,0,.2-.221c.068.083-.026.181-.14.3.457.575.9,1.167,1.355,1.745a6,6,0,0,1,1.327,2.846,20.427,20.427,0,0,1,.315,2.669c.061,2.151.767,4.18,1.069,6.281a1.3,1.3,0,0,0,2.464.494c.013-.026.028-.048.042-.074a4.033,4.033,0,0,0,.02-3.008,6.428,6.428,0,0,1-.234-.951c-.931-3.319-.507-6.277,2.086-8.789a19.687,19.687,0,0,1,3.109-2.766,7.023,7.023,0,0,0,1.478-1.272,2.473,2.473,0,0,0,.477-1.093,1.153,1.153,0,0,0-.374-1.327" transform="translate(461.736 582.85)" fill="#1b365d"/>
    <path id="Path_220" data-name="Path 220" d="M311.416,89.274c.109.129-.195.383-.291.177.149-.16.111-.177.291-.177m3.24-1.034c.144-.155.258.133.393.026a.918.918,0,0,0,.339.815c-.068.063-.14.12-.212.181-.09-.02-.175-.12-.271-.057.046-.315-.4-.662-.249-.966m1.513,1.572a.264.264,0,0,1-.144.343c-.118-.127.02-.234.144-.343m.4-.568c.142.157-.041.291-.149.424-.14-.153.042-.286.149-.424m.549-.472c-.116.068-.024.153-.173.223-.179-.079.066-.413.173-.223M307.966,74.3a.535.535,0,0,1,.066-.354.224.224,0,0,1-.066.354m10.8-4.2a2.148,2.148,0,0,0-1.854-.378,24.7,24.7,0,0,1-5.833.719,5.083,5.083,0,0,0-3.507.995c-.031.3-.087.623-.09.94-.009,1.64.122,3.29-.026,4.915a32.887,32.887,0,0,0,.151,5.89c.05.057.042.114.07.171a.142.142,0,0,1-.048.052c.061.7.122,1.4.175,2.105a.3.3,0,0,0,.074.033.283.283,0,0,1-.074,0c.046.684.079,1.366.085,2.051a9.374,9.374,0,0,0,.4,1.919,1.726,1.726,0,0,0,1.329,1.358c.026,0,.052-.007.079-.011l.028-.033a.115.115,0,0,1,.031.024,30.56,30.56,0,0,1,5.916-.523c.031,0,.059,0,.087,0a.755.755,0,0,0,.063-.055.243.243,0,0,1,.011.055,3.373,3.373,0,0,0,.813-.087,1.508,1.508,0,0,0,1.1-1.211,1.179,1.179,0,0,0-.627-1.231,1.966,1.966,0,0,0-1.375-.376c-1.132.111-2.278.146-3.421.175a11.445,11.445,0,0,1-1.421-.122,23.355,23.355,0,0,1-.345-7.147c.99-.046,1.727-.033,2.451-.12a12.26,12.26,0,0,0,2.4-.453,1.514,1.514,0,0,0,1.045-2.022,4.712,4.712,0,0,0-1.281-.468c-1.06-.066-2.129,0-3.192-.011-.466-.007-.927-.085-1.419-.136a10.031,10.031,0,0,1,.074-3.583c.38-.074.682-.164.995-.192,1.869-.168,3.741-.348,5.616-.474a2.18,2.18,0,0,0,1.847-1.019,1.267,1.267,0,0,0-.317-1.74" transform="translate(699.616 582.606)" fill="#1b365d"/>
    <path id="Path_221" data-name="Path 221" d="M281.214,77.862c.026.157.055.315.085.466a1.978,1.978,0,0,0,.654,1.006c-.114-.444-.147-1.589-.739-1.471" transform="translate(668.58 592.35)" fill="#1b365d"/>
    <path id="Path_222" data-name="Path 222" d="M295.466,78.4c-.356-.184.035-.584-.02-.87a.544.544,0,0,1,.422.225c-.286.205-.157.439-.4.645m-.785-.131c.109.1.063.186-.059.271a.138.138,0,0,1-.055-.122,1.857,1.857,0,0,1-.07.184,12.473,12.473,0,0,1-.763,2.053c-.643,1-1.266,2.068-2,3.028a1.21,1.21,0,0,1-.249.313,9.638,9.638,0,0,1-1.156,1.213c-1.574,1.364-3.421,1.456-5.4,1.819a2.855,2.855,0,0,1-.35-.7,5.75,5.75,0,0,1-.068-1.46c.472-3.741.151-7.5.214-11.246a2.62,2.62,0,0,1,.181-.606,5.44,5.44,0,0,1,1.325-.19c2.11.184,5.138-.039,6.9,1.3a3.725,3.725,0,0,1,1.463,4.235.29.29,0,0,1,.094-.092m-.413,2.5c-.046-.111.013-.21.1-.313.136.116.028.216-.1.313m-.645.7a.266.266,0,0,1,.136-.267c.118.118-.02.282-.136.267m-2.768,5.507c.162-.074.31.076.459.192-.162.085-.308-.1-.459-.192M287.268,89.5c.149-.16.112-.175.291-.179.109.131-.195.383-.291.179M284.109,74.35a.525.525,0,0,1,.068-.354.223.223,0,0,1-.068.354m-.363,11.259c-.109-.127-.094-.273-.046-.479.317.057-.015.365.324.459-.094.007-.181-.042-.278.02m-.028-2.418c.1.074.07.138.1.205-.09.155-.157-.031-.232-.1a1.577,1.577,0,0,0,.127-.109m-.385,6.546c0-.144-.057-.293.07-.429a.17.17,0,0,0,.155.011.3.3,0,0,1-.225.418m-.262-6.353c-.254-.151-.227-.623-.1-.879.313.022.053.619.1.879M282.631,72.9c.179-.05.112-.16.289-.177.157.212-.341.129-.066.352-.157.083-.151-.066-.223-.175m-.652.785a.656.656,0,0,1,.125-.625c.037.055.074.068.116.048.066.212.107.63-.241.577m15.271.977c-1.148-2.1-2.713-3.717-5.208-4.084a45.629,45.629,0,0,0-6.812-.979c-2.1-.044-3.817.378-3.638,1.95a29.9,29.9,0,0,1,.474,3.653c-.035,3.511.269,7.053-.8,10.5a4.177,4.177,0,0,0-.013,1.834.914.914,0,0,0,.186-.153c.2.011.144.166.352.068.063.249.324.439.533.275.188.216.175.385.42.225.077.181.138.131.214.332-.151.07-.057.155-.173.227.085.063.181.026.267.138.024.12-.147.225-.147.343-.14-.125-.457-.238-.4-.542-.324,0-.3.383-.474.7a1.658,1.658,0,0,0,.162.122l.048.031a.368.368,0,0,0,.245-.02.33.33,0,0,1,.127.251,3.415,3.415,0,0,0,2.359.509,20.119,20.119,0,0,0,4.987-1.283c.286-.136.562-.284.829-.442l0-.028a.116.116,0,0,1,.114-.042,9.233,9.233,0,0,0,2.641-2.4c.979-1.316,1.828-2.726,2.722-4.1a9.462,9.462,0,0,0,1.281-5.912,2.856,2.856,0,0,0-.306-1.178" transform="translate(668.516 582.554)" fill="#1b365d"/>
    <path id="Path_223" data-name="Path 223" d="M177.02,82.271a11.415,11.415,0,0,1,1.666-6.591,6.242,6.242,0,0,1,5.212-3.268c.49-.024.984.007,1.788.013a2.91,2.91,0,0,0,.671.052,4.256,4.256,0,0,1,3.9,2.156c2.162,3.111,2,9.79-1.675,11.941a9.715,9.715,0,0,1-7.619.9c-2.048-.542-3.8-3.061-3.944-5.205m9.4,8.27a.961.961,0,0,1,.076-.232c.1.009.138.077.149.175.6-.173,1.187-.389,1.777-.588a8.384,8.384,0,0,0,5.5-6.174c.7-2.7,1.4-6.091-.1-8.66-.533-.916-1.2-1.747-1.7-2.678a5.039,5.039,0,0,0-3.22-2.449,9.057,9.057,0,0,0-3.161-.492c-.717-.009-.962,0-1.209-.015a7.5,7.5,0,0,0-5.658,1.9,9.438,9.438,0,0,0-2.84,3.013,18.344,18.344,0,0,0-1.992,8.284,6.141,6.141,0,0,0,.61,2.6c2.449,4.672,6.884,6.622,11.768,5.319" transform="translate(541.439 582.331)" fill="#1b365d"/>
    <path id="Path_224" data-name="Path 224" d="M98.329,80.894c-.179.131-.081-.188-.238-.018a2.838,2.838,0,0,1,.317-.568c.168.05-.317.4-.079.586M94.466,78.4c.1-.142.188-.033.291-.177,0,.122-.149.385-.291.177m-2.54,3.977c.081-.061.044-.127.131-.188.066.181.166-.085.232.1-.017.149-.256.332-.363.092m-4.217,3.065c.009-.245.1-.693.444-.68.092.192-.072.363.039.555-.162.035-.308-.138-.483.125m-.048-1.587c-.077-.011-.164.122-.234-.015.1-.085.061-.181.216-.262.061.1-.042.181.017.278m-1.5-6.244c-.352-.184.039-.584-.015-.872a.537.537,0,0,1,.418.23c-.286.2-.153.437-.4.643m-.84.138c-.109-.1-.063-.186.057-.271.112.1.063.19-.057.271m-.363-1.014a.4.4,0,0,1,.149-.424c.14.153-.039.286-.149.424m-.026.912c-.142-.131-.195-.254-.013-.359.168.129.129.245.013.359m23.434-6.939c-1.307.571-1.784,1.817-2.239,3.039-.49,1.3-.741,2.7-1.32,3.959A20.231,20.231,0,0,0,102.9,84.4c-.293-.265-.577-.4-.61-.579a20.551,20.551,0,0,0-1.48-4.167c-.6-1.434-1.163-2.89-1.694-4.353-.28-.765-.429-1.576-.684-2.352a1.349,1.349,0,0,0-1.366-.853,1.324,1.324,0,0,0-1.406.774,2.859,2.859,0,0,0-.35.912A11.8,11.8,0,0,1,94,77.475c-.815,1.788-1.627,3.572-2.457,5.356-.24.516-.551,1-.818,1.513-.245.466-.286,1.078-.979,1.377a8.865,8.865,0,0,1-.4-.916c-.339-1.091-.686-2.184-.977-3.295-.711-2.693-1.366-5.4-2.1-8.087a23.459,23.459,0,0,0-1.038-2.759A1.856,1.856,0,0,0,83.745,69.5a1.326,1.326,0,0,0-1.342.4,1.184,1.184,0,0,0-.2,1.362,18.524,18.524,0,0,1,1.091,2.466c.582,2.048,1.119,4.108,1.664,6.167a.386.386,0,0,1,.114-.221c.129.111.033.21-.092.3.265,1,.536,2.009.811,3.008q.285,1.017.579,2.033a.175.175,0,0,1,.035.12q.174.6.352,1.2c.258-.286.529-.584.8-.909.042.448-.219.56-.621.907-.046.039-.09.087-.138.133q.567,1.915,1.152,3.822a1.379,1.379,0,0,0,1.08,1.008.111.111,0,0,1,.166.031,1.383,1.383,0,0,0,1.447-.721c.726-1.29,1.471-2.569,2.125-3.889,1.2-2.422,2.333-4.88,3.5-7.313a7.585,7.585,0,0,1,.614-.892,5.019,5.019,0,0,1,.632.874c.641,1.69,1.3,3.369,1.854,5.087a32.543,32.543,0,0,0,2.508,5.605,1.454,1.454,0,0,0,1.4.829,1.339,1.339,0,0,0,1.255-1.019c.171-.542.348-1.089.466-1.644.739-3.432.979-6.994,2.683-10.168a22.469,22.469,0,0,0,2.1-5.256c.149-.651.02-2.742-1.41-2.118" transform="translate(432.354 582.403)" fill="#1b365d"/>
    <path id="Path_225" data-name="Path 225" d="M334.328,88.791c.109.024.147.122.289.116,0,.129-.245.024-.348.057a.286.286,0,0,0,.059-.173m.638-.643c.044.179-.1.171-.057.35-.175,0-.168-.415.057-.35m.7-3.614c.127.125.216.216.059.35-.129-.007-.024-.247-.059-.35m.409,1.108c-.024-.306-.4-.26-.409-.584.306-.221.536.258.409.584m.584.116a.33.33,0,0,1,.116.466c-.138-.037-.334-.011-.293-.35a.16.16,0,0,0,.177-.116m.057,2.682c.037.14.116.3-.118.291-.022-.1.048-.112.118-.118-.092-.085-.066-.258.116-.234,0,.059-.07.046-.116.061m1.4,1.688c.173.007.157.35-.057.293a.4.4,0,0,1,.057-.293m.409-1.688c.112.022.048.225.234.173-.09.16-.35.007-.411-.057.017-.083.177-.022.177-.116m4.2.756c.216.26-.162.42-.232.582-.212-.245,0-.481.232-.582m.409-1.106c.1-.07.044-.306.116-.411.138.077.107,0,.293.061-.044.363-.284.179-.35.523.009.07.1.05.173.059a1,1,0,0,0-.116.409h-.173c.035-.173-.039-.319,0-.525-.1-.081-.326.033-.293-.293.175,0,.2.151.35.177M334.5,89.768a.582.582,0,0,0,.118-.28c.225.074.031.33-.039.483a2.156,2.156,0,0,0,.516.752.506.506,0,0,0,.092.059,1.071,1.071,0,0,0,.168.037c.007-.015.037-.009.024-.048.011.055.066.066.114.081a5.913,5.913,0,0,0,1.817.052c0-.118.028-.214.168-.192.033.037.022.116.026.177.376-.042.715-.085.907-.118a25.542,25.542,0,0,1,4.648-.389,3.828,3.828,0,0,0,1.2-.2,1.8,1.8,0,0,0,1.226-1.662,1.071,1.071,0,0,0-.142-.35c0,.035-.033.081,0,.1-.164.1-.256.341-.466.234.037.059.133.061.116.175-.107.112-.4-.094-.407.118a.273.273,0,0,0-.177-.059c.031-.3.074-.153-.116-.234.018-.079.147-.048.234-.057.07-.155-.179-.251.059-.234.013-.171-.133-.179-.116-.35a4.412,4.412,0,0,0,.713.094,2.531,2.531,0,0,0-.9-.555,2.656,2.656,0,0,0-1.185-.107c-1.139.1-2.278.3-3.421.387-.787.059-1.618.363-2.422-.216-.09-.472-.175-.947-.245-1.421-.022,0-.037.011-.059.011.011-.02.042-.015.055-.033a16.913,16.913,0,0,1-.212-4.154c.116-1.3.523-1.731,1.882-1.74,1.954-.015,6,1.058,6.414-1.795.256-1.766-7.037-1.382-7.9-1.506a4.274,4.274,0,0,1,.378-3.2,3.355,3.355,0,0,1,2.676-1.087,23.109,23.109,0,0,0,2.989,0c1.316-.206,2.895-1.3,1.561-2.459a2.985,2.985,0,0,0-1.86-.527c-2.766-.212-5.339.7-7.94,1.41-.966.26-1.331.94-1.115,2.175.553,3.181-.166,6.362.114,9.534a1.726,1.726,0,0,1-.048.492,15.934,15.934,0,0,0,.553,6.607" transform="translate(730.981 582.464)" fill="#1b365d"/>
    <path id="Path_226" data-name="Path 226" d="M184.388,9.914c-.206-.212.181-.411.275-.479.313.236-.175.267-.275.479m-2.094,5.518c-.306-.1-.171-.4-.38-.536.094-.258.3-.262.446-.413-.267.315.09.383-.066.949m-.509-.2c-.044.219-.369-.192-.352.16-.168-.2.09-.525.4-.529.015.26-.4.265-.044.369m-.741-.861c-.361-.111-.289-.238-.595-.225.19-.3.822.225.754-.2.383.131-.155.19-.16.424m-.649.433a.5.5,0,0,0,.214-.306c.2.269-.175.391.146.636-.14.171-.243-.256-.361-.33m-.072-9.541c.4.188-.175.409-.171.711-.05-.149.039-.715.171-.711m-.689,5.66c-.354-.179.177-.767.479-.5-.107.282-.385.184-.479.5m-1.257,4.086c.693.5.745.254,1.559.494a1.217,1.217,0,0,1-1.559-.494m-.649-.341c.188-.265.488-.273.842-.168-.085.225-.339.083-.418.328-.14-.055-.282-.107-.424-.16m-.584-2.553a1.159,1.159,0,0,1,.938-.422c-.282.216-.514.529-.938.422m-.767,3.3c.284,0,.359-.459.7-.317-.131.328-.319.533-.7.317m-.505-1.747c.265-.313.28.26.63.142-.1.245-.557.017-.63-.142m.164,2.39c-.332-.179-.706.111-1.231-.077.372-.317,1.025-.011,1.338-.463.072.164.024.488-.107.54m-1.994-1.141c.114-.265.162-.682.481-.5-.085.048-.223.186-.1.258.254.195.234-.216.332-.361.529.385.133-.317.551-.179-.28.636-.022,1.052-.6,1.327-.5-.055-.23-.459-.665-.544m.046,1.668c.206-.013.24-.411.5-.3-.074.306-.21.474-.5.3m.087-3.559c.267.02.177.2.394.245-.074.258-.291.188-.363.444-.411,0,.2-.461-.212-.468a.418.418,0,0,0,.181-.221m-.507-.968c.23-.485.411.087.6.225-.09.063-.23.013-.269.19-.219.061.332-.411-.328-.415m-1.235,1.474c.031-.192.142-.2.212-.308.157.046.14.171.308.212a.5.5,0,0,1-.52.1m-.415.324c-.378-.16-.111-.282-.562-.308.1-.35.479-.079.617-.35.09.052.013.1-.033.085a.464.464,0,0,1-.022.573m.874-4.615c-.052.14-.1.282-.16.424-.21-.05-.369.013-.625-.14.3-.02.389-.494.785-.284m1.716,1.62a.433.433,0,0,0-.181.223c-.247-.074-.466-.166-.328-.415l.509.192m-3.64-3.71a.219.219,0,0,1-.157-.35c-.38.094-.623.5-1.213.12.037-.422.557-.192.8-.571a.681.681,0,0,1,.072.321c.8-.428,1.751-1.323,2.626-1.045.359-.024.258-.162.45-.413.111.044.225.087.341.129-.269-.356.479-.54.9-.334-1.069,1.017-2.512,1.2-3.778,1.771-.07.149.035.216-.044.372m-.636,5.778c.092-.23-.079-.225.127-.341.289.149.026.435.446.363-.092.214-.348.061-.573-.022m-1.111-4.5c.129-.282.391-.271.669-.23.116.376-.424.61-.669.23m-.074,5.315c-.251-.081-.125-.442-.009-.488.179.192.2.275.009.488m-.315-.7c-.28-.059-.2-.282-.094-.52.251.144.337-.206.455.077-.173.028-.306.153-.361.444m-.212-6.1c.033-.085.063-.171.1-.256.271.343-.542.4-.14.627-.595.243-.566-.523.044-.372m-1.624,6.082c-.214-.164-.267.035-.457-.079.236-.2.365-.638.66-.717.048-.164-.267-.164-.275-.3.262-.319.155.164.509.2-.5.35.341.234.061.606a.824.824,0,0,0,.468-.212c.127.649-.743-.1-.966.507m-.763-1.067c-.527-.317-.584-.111-1.019-.385.107-.234.444.046.5-.3-.278-.278-.934.1-.807.081-.046.007-.477-.111-.724.114-.131-.332.289-.4.586-.262.251-.536-.265-.726-.474-1.054.133-.282.516,0,.669-.232.131.05-.192.385-.278.477a1.023,1.023,0,0,1,.807-.081c-.14.249.144.31.094.52.21-.007.35-.164.606-.061-.256.374.1.47.232.669-.063.171-.129.339-.192.509m-1.222.411c-.087.184-.175-.19-.424-.16.085-.23.337-.083.415-.33.109.092.164.208.276.3.2.21-.5-.243-.267.19m-.459,5.555c.3.028.094.286.247.383-.186.19-.455-.162-.247-.383m-.291-1.279c.157.19.1.474.114.726-.321-.114-.164-.444-.114-.726m-.424-5.789c-.192-.286.286-.4.5-.3-.07.313-.326.219-.5.3m1.981-1.384c.094.048.16.037.2-.02.21.28-.282.3-.363.444-.188-.083.19-.175.16-.424m1.038-2.23c.282.061.286.249.446.365a.434.434,0,0,1-.606.059c.151-.249-.061-.321.16-.424M173.2,3.828c.153.2-.245.485-.341.647-.085-.033-.171-.066-.256-.1.094-.42.378-.415.6-.551m2.1,4.191c-.037.234.02.387-.3.28.042-.234-.018-.387.3-.28m.726-3.7c-.068.488-.433.555-.811.857-.232-.1-.127-.365-.3-.5.4-.061.689-.345,1.106-.359m.3,6.13c.1.206-.155.326-.383.243.1-.146.166-.352.383-.243m1.038-2.226c-.048.155-.175.138-.216.306a4.9,4.9,0,0,1-.494-.479c.085-.055.367.046.711.173m1.561,2.534c.234.232-.254.142-.245.391-.4-.179.131-.385.245-.391M211.652,12c-.015.077-.063.066-.118.052l-.063.168c-.243-.275-.549-.179-.726.116-.3-.271.527-.551.907-.337m.551-3c-.111-.26-.317-.042-.595-.225.171.007.853-.256.595.225m.789-1.06.339.131a.337.337,0,0,1-.468.208c.044-.111.087-.225.129-.339m.588-.26c-.149.085-.219.35-.47.208.05-.3.26-.256.47-.208m.184-3.815c.092-.208.3.083.339.129-.028.254-.234.1-.3.273-.326-.155.162-.238-.039-.4m.393,5.1c-.234-.057-.151-.262-.127-.435.317.022.234.223.127.435m.955,17.448c-.042.114-.085.225-.129.339a.193.193,0,1,1,.129-.339M216.49,7.428c-.214.114,0,.188-.214.3-.254-.024-.1-.23-.273-.3.118-.1.319-.02.487-.007m.112,10.719c-.3-.074-.16-.35-.3-.5.238-.171.483.249.3.5M217.367,6.4c-.072.1-.24-.011-.374-.046.052-.092.039-.16-.02-.2.2-.219.3.184.393.247m.553,11.082c.256.024.107.234.275.3-.168.221-.164.048-.372-.044.031-.085.063-.168.1-.254m2.556-4.178a.335.335,0,0,1-.638.149c.157-.171.306-.361.638-.149m.208,1.244c.234.059.234.223.127.435-.192-.028-.205-.142-.308-.212a.425.425,0,0,0,.181-.223m17.365,82.392c-5.54-3.515-9.709-8.491-14.215-13.082-4.34-4.427-8.4-9.145-12.424-13.863-3.286-3.852-6.539-7.761-9.462-11.886s-2.746-5.87.324-9.888c1.839-2.416,4.031-4.565,5.85-7,7.888-10.546,15.69-21.154,23.532-31.735,2.591-3.5,1.093-7.155-3.323-7.6a32.389,32.389,0,0,0-7.956.1c-5.046.752-10.078,1.749-12.459,7.258A10.644,10.644,0,0,1,206,11.6c-.232.269-.474.531-.708.8a1,1,0,0,1,1-.1,1.953,1.953,0,0,1-1,.1c-5.748,6.594-11.9,12.846-16.939,20.045a9.529,9.529,0,0,1-2.206,1.677,5.855,5.855,0,0,1-.494-1.222c-.146-7.51-.271-15.017-.413-22.527a.217.217,0,0,0-.122-.09.2.2,0,0,1,.12-.171c-.011-.5-.02-1.008-.031-1.513-.068-3.717-2.162-5.75-6.019-5.737a81.96,81.96,0,0,0-9.071.315c-3.677.433-6,1.41-6.908,4.042a8.734,8.734,0,0,1,2.431.146,7.4,7.4,0,0,1-2.58.251,9.089,9.089,0,0,0-.293,2.016.87.87,0,0,1,.168.009c-.055.033-.111.059-.168.09-.007.26.011.56.017.84a2.086,2.086,0,0,1,.846.3c-.439.293.227.214.479.278-.256.28-.923.181-1.314-.1.009.179-.007.326.009.509l0,.081a.285.285,0,0,1,.33.013c-.079.122-.214.118-.319.188.256,3.31.413,6.644.35,9.958q-.321,17.476-.883,34.947c-.094,2.9-1.014,5.8-.929,8.677.33,11.134.892,22.264,1.428,33.394a31.112,31.112,0,0,0,.719,4.11,5.794,5.794,0,0,0,5,4.982,38.6,38.6,0,0,0,13.229.488c2.564-.343,3.6-1.336,3.712-3.9a44.624,44.624,0,0,0-.188-5.693c-.641-7.7-1.362-15.389-1.983-23.089a52.658,52.658,0,0,1,.166-5.273,18.861,18.861,0,0,1,3.056,2.011q6.529,7.152,12.942,14.4c1.839,2.073,3.548,4.261,5.347,6.373,3.194,3.752,6.336,7.558,9.674,11.182a7.918,7.918,0,0,0,3.782,2.182,22.9,22.9,0,0,0,10.544.116,10.665,10.665,0,0,1,4.486-.039c2.674.571,5.037-.267,7.357-1.237,2.269-.947,2.833-2.569,1.449-4.558a14.718,14.718,0,0,0-4.036-3.946" transform="translate(526.398 502.005)" fill="#1b365d"/>
    <path id="Path_227" data-name="Path 227" d="M375.48,4.778c.149.439-.059.853.09,1.29-.743.2-.743-1-.09-1.29M312.288,65.725c-.47-.431-.074-.8.175-1.176-.072.391.514.829-.175,1.176M293.482,44.433a.706.706,0,0,1,.066-.912.614.614,0,0,1-.066.912m-.077,1.1c-.3.2-.5-.164-.157-.38-.052-.1-.116-.059-.181-.011-.083-.16.173-.3.306-.435.492.308-.009.547.033.826m-.942,1.67a.634.634,0,0,1,.317-.619.622.622,0,0,0,.157.376c-.168.219-.317.157-.474.243m.31-1.808c-.269.162-.057.363-.4.52-.234-.3-.057-1.036.4-.52m-7.14,2.6c-.059-.247.118-.479.415-.7a.474.474,0,0,1-.415.7m-.9-18.187c.4-.195.2.142.518.4-.271.4-.538-.269-.518-.4m-2.615,40.546c-.162-.269-.361-.057-.52-.4.181-.24.33-.627.684-.595.061.343.3.7-.164,1m-2.58,1.557c-.3-.2.024-.365-.144-.56.223-.435.863-.269.78-.676a.628.628,0,0,1,.619.315c-.415.153-.645.864-1.255.92m-.87,1.95c-.52-.54-.383-1.261.282-1.443.232.446.109,1.347-.282,1.443m-1.233.553c.225.234.448.144.424.488-.3.3-.9-.155-.424-.488M276.03,36.329l.391-.343c.112.133.223.262.339.391a.607.607,0,0,1-.73-.048M275.323,77.1c.5.035.026-.463.415-.7.614.087.271.7.387,1.032a.619.619,0,0,1-.8-.33m1.408-67.357c-.457.013-.474.643-.892.94a2.892,2.892,0,0,1-.313-.754c.409-.153.837-.636,1.2-.186m-2.905,52.421a2.686,2.686,0,0,1,.3-1.624c.6.227.284,1.176-.3,1.624m-.168-43.947c-.356-.33-.42-.638-.118-.923.328.05.426.638.118.923m-.8,61.363c-.249-.232-.328-.453-.048-.645.168.245.341.348.536.221.173.249-.38.428-.487.424m-1.014,1.39c.033-.448-.437-.361-.73-.052-.54-.708.8-.8.54-1.15.236-.334.422.107.658-.23.223.262.52.527.494.767-.623.009-.54.083-.962.665m111.928-4.357c-1.082-13.657-2.827-27.218-4.9-40.751-.59-3.867-.608-7.822-.866-11.74-.343-5.293-.658-10.59-1-15.883a8.834,8.834,0,0,0-.324-1.484,8.378,8.378,0,0,0-.73-1.981c-.068.037-.122.079-.206.116a.462.462,0,0,1,.05-.359c-.9-1.469-2.272-2.142-4.445-2.132-2.783.013-5.573.2-8.349.418-3.19.251-5.21,1.9-6.583,4.9-3.54,7.72-7.328,15.325-11.086,22.94-4.147,8.406-8.375,16.77-12.571,25.155-.907,1.812-1.74,3.671-2.752,5.426a14.631,14.631,0,0,1-2.156,2.291c-4.082-7.442-8.015-14.366-11.705-21.416-3.821-7.3-7.457-14.7-11.071-22.1-1.5-3.063-2.7-6.268-4.095-9.383-.879-1.963-1.769-3.957-3.876-4.982a23.247,23.247,0,0,0-6.325-2,.872.872,0,0,1,.173.42c-.21.122-.424-.258-.485-.472A28.682,28.682,0,0,0,276.447,5.23a3.951,3.951,0,0,0-2.733,4.128c.015,2.149-.26,4.3-.352,6.449-.044,1.054-.1,2.105-.147,3.163.136-.083.262-.052.4-.206a.641.641,0,0,0,.157.376.612.612,0,0,0-.378.155c-.059-.072-.122-.144-.184-.214a262.087,262.087,0,0,1-2.376,27.424c-.048.317-.083.636-.131.953a3.17,3.17,0,0,1,.708-.3c.413.306.063.553.214.84a.869.869,0,0,1-.929-.485c-1.31,8.815-2.311,17.676-3.542,26.5-1.1,7.89-2.306,15.765-3.537,23.635-.273,1.747-.951,3.43-1.246,5.173-.47,2.79.756,4.665,3.507,5.409a15.338,15.338,0,0,0,4.119.643c4.04-.039,8.08-.208,12.116-.4,4.783-.232,5.619-1.087,5.868-5.833a18.058,18.058,0,0,0-.1-2.276c-.547-7.215-.982-14.429.411-21.606,1.261-6.476,2.479-12.96,3.791-19.422.31-1.526.923-2.993,1.666-5.337,1.681,2.009,2.9,3.24,3.854,4.652,2.967,4.412,5.887,8.856,8.708,13.362,2.75,4.39,5.927,8.539,7.28,13.71,1.01,3.878,2.536,7.5,7.077,8.557.332.081.575.488.892.7a6.948,6.948,0,0,0,5.428,1.135,18.62,18.62,0,0,1,3.393-.341c4.442-.037,5.839-.857,7.344-5.057,1.235-3.459,2.173-7.026,3.24-10.544,3.253-10.708,9.084-20.039,15.463-29.088.512-.726.912-1.533,1.364-2.3l1.181.824a6.468,6.468,0,0,1,.568,1.338c1.817,10.242,3.609,20.48,2.842,30.97-.271,3.662-.19,7.346-.306,11.019-.077,2.392-.278,4.779-.308,7.171a7.957,7.957,0,0,0,.442,3.321c1.651,3.605,9.281,6.983,13.128,5.872,2.914-.844,5.774-1.878,8.679-2.757a3.8,3.8,0,0,0,2.866-3.218,16.478,16.478,0,0,0-.055-4.508c-1-7.407-2.462-14.77-3.054-22.208" transform="translate(646.113 502.845)" fill="#1b365d"/>
    <path id="Path_228" data-name="Path 228" d="M270.2,92.394c-.223-.383-.057-.735.26-1.08.033.369.219.748-.26,1.08m-32-57.012c-.2.223-.352-.188-.549-.042-.19-.317.389-.582-.116-.923.516-.21.529-.028.9.247a.707.707,0,0,0-.234.717m15.927-14.156c.37.273.249.507.313.754-.461.275-.866-.383-.313-.754m2.105-9c.765.4.363,1.078.247,1.664-.616-.227-.527-1.191-.247-1.664m3.155,3.244c.12.254,0,.488.313.754-.553.448-.63.842-1.229.555.789-.155.5-.859.916-1.31m15.695-3.183c.354.267.147.5-.048.726-.114-.129-.227-.258-.339-.389.129-.114.258-.227.387-.337m2.352,6.847c.352.238.107.435.225.658a.6.6,0,0,0-.376.157.586.586,0,0,1,.151-.815M253.747,54.7c.122.223-.122.42.23.658-.208-.09-.435.122-.632-.138.348-.216-.033-.557.4-.52M259.9,48a.7.7,0,0,1-.063.912A.7.7,0,0,1,259.9,48m1.6-1.9a1.824,1.824,0,0,1,.3.936c-.216.044-.415-.19-.619-.317-.3.435-.711.866-.188,1.358-1.128-.5-.072-1.5.507-1.976m1.189-.007c-.251.146-.523-.45-.507-.586.42-.087.435.262.507.586m.072-2.282c.2.251.079.459.424.488-.052-.5.553-.7.975-.846.986.975-.087,1.97-.352,2.355a2.079,2.079,0,0,1-1.574-1.028,3.33,3.33,0,0,1,.527-.968m2.545,4.117c.162.269.361.057.52.4-.129.114-.262.227-.391.339-.262-.265-.474-.523-.129-.741M276.689,37.2c.077.28-.195.536-.514.787-.227-.293.251-.531.514-.787M288.862,86.15c-.951-.094-1.909-.129-2.866-.144.217.136.619.549.807.706-.19.413-.136.844-.455,1.248-.442-.673.407-1.255-.5-1.959l.018,0c-1.025-.011-2.048,0-3.072.024-2.65.05-5.3.247-7.945.306-1.893.039-3.8-.179-5.682-.052-4.425.3-8.837.807-13.262,1.091-4.869.313-5.979-.61-5.929-5.376.079-6.852.4-13.7.665-20.544.151-3.878.617-4.3,4.536-4.313,9.252-.042,18.5-.05,27.754-.09,3.174-.011,3.743-.49,4.13-3.653.413-3.4.619-6.821,1.115-10.2q1.23-8.4-7.112-10.118a22.67,22.67,0,0,0-10.166.61c-4.77,1.187-9.587.971-14.372.785-5.511-.214-5.5-.455-5.251-6.106.026-.634.022-1.27.083-1.9.289-3.124.818-3.59,4.027-3.73,3.8-.168,7.615-.19,11.386-.623a24.177,24.177,0,0,1,9.405.665,52.242,52.242,0,0,0,7.774,1.727c3.756.444,4.731-.4,5.452-4.106a60.088,60.088,0,0,0,1.519-8.946c.214-5.184-.555-6.887-5.918-7.986a13.144,13.144,0,0,0-2.641-.017c-2.534.015-5.072.081-7.606.044-10.632-.157-21.219-2.02-31.89-.92a7.468,7.468,0,0,1-1.9-.107,18.439,18.439,0,0,0-11.1,1.716c-3.041,1.432-3.682,2.37-3.052,5.608a32.365,32.365,0,0,1,.284,12.083,23.415,23.415,0,0,0,.055,4.543c.144,7.217.509,14.442.365,21.652-.127,6.323-.879,12.63-1.266,18.952-.234,3.922-.3,7.855-.439,11.786-.039,7.964-1.377,15.916-.059,23.908.807,4.9,2.6,6.532,7.42,6.808,8.629.5,17.184-.754,25.78-.837,6.712-.063,13.43,0,20.139.166,4.049.1,8.089.512,12.136.752a2.486,2.486,0,0,0,2.969-2.65c.232-4.812.627-9.622.638-14.433.009-4.04-1.939-5.962-5.981-6.364" transform="translate(602.114 502.634)" fill="#1b365d"/>
    <path id="Path_229" data-name="Path 229" d="M46,107.157c-.47-.433-.074-.8.175-1.181-.07.391.514.831-.175,1.181m-18.8-21.294a.707.707,0,0,1,.063-.912.619.619,0,0,1-.063.912m-.079,1.093c-.293.2-.5-.16-.155-.378-.057-.1-.118-.059-.181-.013-.087-.16.173-.291.3-.435.494.308-.011.549.033.826m-.944,1.672a.636.636,0,0,1,.321-.621.608.608,0,0,0,.155.38c-.168.219-.317.157-.477.24m.315-1.81c-.273.166-.057.363-.4.52-.238-.3-.059-1.036.4-.52m-2.328-41.9c.251-.146.527.453.507.586-.254.146-.523-.45-.507-.586M20.593,31.94a1.321,1.321,0,0,1,1.139.721,1.917,1.917,0,0,1-1.139-.721M19.339,89.425c-.057-.249.12-.483.418-.7a.476.476,0,0,1-.418.7m-.9-18.189c.4-.192.2.14.52.4-.269.4-.54-.273-.52-.4M11.984,42.31a1.239,1.239,0,0,1,.188-1.358c.389.485.223.931-.188,1.358M9.737,77.757c.129-.111.26-.225.389-.339.114.129.225.26.339.389a.6.6,0,0,1-.728-.05m-.5-26.4c.407-.157.837-.638,1.2-.19-.455.013-.47.645-.89.944a2.947,2.947,0,0,1-.31-.754M7.362,59.648c-.354-.33-.418-.643-.116-.925.328.05.424.638.116.925M7.1,60.728c-.085-.1-.171-.2-.256-.293.164-.164.31-.061.477-.243a.6.6,0,0,0,.155.378.589.589,0,0,0-.376.157M5.664,51.38c.267-.315.5-.192.754-.313.273.262.039.492.31.756a.7.7,0,0,1-1.065-.444m.562,10.107c-.275.02-.56.133-.813-.149.673-.35.367-.767.905-1.126A3.931,3.931,0,0,1,6.7,61.249c-.251.142-.686-.3-.474.238M4.426,53.3c-.407-.171.378-.85.492-.42-.013.107-.269.63-.492.42m-1.78,1.887a2.82,2.82,0,0,1-.313-.754c.129-.111.258-.225.391-.339.507.179.595.4.955.711-.38.621-.665-.079-1.034.383M29.332,9.5c.243.389-.418.446-.658.227.23-.225.435-.109.658-.227m4.628-.77c.081.282-.19.533-.512.787-.326-.426.144-.625.512-.787M35.6,7.654c-.131.111-.262.225-.389.339a.276.276,0,1,1,.389-.339m.234-.717c.223.275.332.055.339.391a.276.276,0,1,1-.339-.391m4.657-3.693c-.49.42-.975.842-1.465,1.266-.146-.376,1.073-1.528,1.465-1.266m-5.391,7.577c-.251-.23.623-1.154.877-.761q-.436.38-.877.761m25.7-4.851c.232.595-.477.184-.728-.052.282-.509.448.56.728.052M81.512,38.93c.212.35-.057.667-.343.982a1.635,1.635,0,0,1,.343-.982M94.431,80.575c-3.448-3.666-7.685-3.942-11.235-.378A10.236,10.236,0,0,0,81.278,83a9.868,9.868,0,0,1-6.521,5.457,42.516,42.516,0,0,1-10.42,1.775c-9.593.077-18.469-2.776-26.692-7.667a10.913,10.913,0,0,1-2.661-2.121c-3.312-3.811-7.053-7.409-7.1-13.017a2.683,2.683,0,0,0-.328-1.087,23.14,23.14,0,0,1-1.928-14.449c.212-2.018.389-4.042.649-6.056a14.006,14.006,0,0,1,4.55-8.859c5.153-4.851,11.589-7.1,17.844-9.7,5.407-2.25,10.835-1.423,16.261.656,4.425,1.7,8.421,3.627,11.27,7.573.317-.3.63-.514.92-.459.164.166.059.31.24.477,1.85-1.006,4.591,2.678,2.492,4.318a11.385,11.385,0,0,0,7.6,2.656c3.579-.037,5.579-1.366,7.114-4.63a21.624,21.624,0,0,1,2.669-4.051c1.406-1.793,3-3.437,4.421-5.227,1.878-2.37,1.784-4.873-.212-7.23-4.182-4.934-9.622-8.24-15.26-11.1-4.611-2.341-9.571-3.992-14.353-6.008A42.791,42.791,0,0,0,53,.754,58.123,58.123,0,0,0,41.485,2.363c-.164.192-.38.28-.557.144A44.645,44.645,0,0,0,26.89,8.8c-4.062,2.752-7.315,6.235-10.575,9.768C12.039,23.2,7.446,27.605,5.1,33.665,4,36.492,2.983,39.349,1.888,42.178A26.575,26.575,0,0,0,.257,55.624,110.467,110.467,0,0,0,3.4,71.423a.5.5,0,0,1,.23-.509c.081.129.173.155.265.111.111.251-.4.457-.234.713-.138.031-.234-.118-.256-.3a52.4,52.4,0,0,0,2.86,7.619c3.964,8.356,8.865,16.04,16.283,21.6,10.656,7.988,22.6,12.383,36.212,10.953,1.889-.2,3.78-.433,5.678-.527,8.507-.424,16.963-1.161,24.755-5.024A35.27,35.27,0,0,0,95.968,102a66.224,66.224,0,0,0,6.681-6.747c2.628-2.873,2.521-4.405-.271-7.072-2.65-2.532-5.437-4.934-7.947-7.6" transform="translate(335 500.846)" fill="#1b365d"/>
    <path id="Path_230" data-name="Path 230" d="M35.125,17.134c.039.057.081.109.118.166a1.4,1.4,0,0,1,.136-.348c-.219-.162-.2.024-.254.181" transform="translate(376.665 520.036)" fill="#1b365d"/>
    <path id="Path_231" data-name="Path 231" d="M34.945,16.751a.1.1,0,0,0-.044-.061c.013.02.031.039.044.061" transform="translate(376.399 519.798)" fill="#1b365d"/>
    <path id="Path_232" data-name="Path 232" d="M36.217,18.339c-.011-.035-.031-.055-.042-.1-.026-.02-.026.013-.046.015l.087.081" transform="translate(377.857 521.632)" fill="#1b365d"/>
    <path id="Path_233" data-name="Path 233" d="M35.438,17.8c.129.173.258.348.394.516a1.543,1.543,0,0,1-.037-1.152c-.271-.118-.109.415-.356.636" transform="translate(377.036 520.338)" fill="#1b365d"/>
    <path id="Path_234" data-name="Path 234" d="M200.623,46.96c-.142-.05-.284-.1-.426-.157.026-.179-.1-.284-.009-.488.332.007.4-.087.595.221-.157.238-.12.142-.16.424m-10.538,14.9A51.506,51.506,0,0,1,181.17,81.41a8.67,8.67,0,0,1-3.135,2.645c-4.74,2.162-9.615,3.922-14.967,3.76a28.527,28.527,0,0,0-4.53.221c-5.577.711-10.83-.658-16.014-2.435a5.062,5.062,0,0,1-2.239-1.4c-5.35-6.55-11.169-12.872-12.138-21.836-.286-2.634-.254-5.306-.363-7.96-.324-8.061,3.15-14.877,7.483-21.163,3.99-5.787,10.369-8.063,17.092-8.577,6.666-.512,13.432-.35,19.884,1.777a22.713,22.713,0,0,1,11.121,7.424,40.417,40.417,0,0,1,6.5,12.671c1.793,5.151,1.434,10.177.223,15.323M162.867,19.542c-.074.1-.2.074-.267.19.107.026.614.087.348.614a.749.749,0,0,1-.54-.1c.326-.575-.234-.14-.328-.418.136-.378.372-.525.787-.282m3.675-5.6a.465.465,0,0,1-.807.081.558.558,0,0,1,.807-.081m-.774-.778c.418-.208.453.7.848.319.107.074-.009.24-.042.374-.308-.354-.6.074-1.082-.214-.055-.4.492-.234.275-.479m2.5,2.114a.37.37,0,0,1,.232.669c-.369-.09-.326-.374-.232-.669m3.406-4.633c.2-.066.221,0,.1.234-.306-.009-.09-.606-.446-.361a.408.408,0,0,1-.039-.407c.262.116.483.254.38.533m2.455-.33c.052.166.168.3.094.518-.23.072-.492-.3-.466-.562.138.044.308.162.372.044m.923,6.272c.094.223-.232.4-.393.531-.216-.118-.219-.328-.413-.453.26-.042.428-.3.807-.079m.234,2.709a.219.219,0,0,0-.35.157,4.922,4.922,0,0,1-.562-.308c.179-.269,0-.374.14-.63.2-.079.54.16.691-.028a.971.971,0,0,1,.081.809m.477-8.168c.4.055.321.324.5.481.009.284-.656.192-.245.391-.052.094-.181.013-.286-.013-.031.085.077.107.133.151-.459-.035-.66.463-1.126.153a12.4,12.4,0,0,1,1.025-1.163m6.226,5.079c.116.044.23.087.343.129.035.3-.1.265-.142.627l-.509-.192c.061-.286.267-.243.308-.564M125.153,39.12c-.118-.131-.087-.332.026-.573a.244.244,0,0,0,.317-.068c.286.383-.232.284-.343.641M115.4,74.838c-.19-.1-.046-.356-.328-.415.009-.168.293-.459.107-.544.345-.171.453.359.7.463-.026.459-.365.223-.479.5m-.571-27.686c-.208.214-.544.776-.765.483.223.363-.157.374-.341.647-.59-.38-1.419-.918-1.13-1.885.07-.07.431.2.149-.138.164-.175.313.31.437-.125.208.09.2.26.372.044.092.05.013.181-.015.286.24-.273.444.284.588-.267.286.094.481.376.837.61-.061.09-.507.212-.131.343m92.982-8.343c-.479-6.368-4.777-10.732-7.973-15.675a6.053,6.053,0,0,0-1.452-1.209c-5.826-4.442-11.233-9.512-18.2-12.265a2.68,2.68,0,0,1-.636-.411c-8.229-6.272-17.352-7.582-27.317-5.358-8.751,1.952-16.659,5.947-24.741,9.543a5.281,5.281,0,0,0-1.8,1.364c-3.4,3.924-6.836,7.818-10.087,11.858-4.832,6-7.007,13.2-8.345,20.59a64.192,64.192,0,0,0-.739,12.835c.063,2.722.977,5.431,1.57,8.133a30.15,30.15,0,0,0,1.581,6.191,83.347,83.347,0,0,0,5.433,9.952,70.454,70.454,0,0,0,6.764,9.147c5.4,6.021,12.827,9.033,20.013,12.083,5.549,2.355,11.583,3.59,17.42,5.247a32.731,32.731,0,0,0,4.13.638l.151.437c2.652-.7,5.321-1.36,7.956-2.136,1.084-.321,2.057-1.119,3.146-1.312,6.237-1.091,11.329-4.353,15.94-8.426,3.5-3.091,7.131-6.139,10.028-9.753,2.328-2.9,3.728-6.578,5.382-9.984a53.528,53.528,0,0,0,5-17.8,46.131,46.131,0,0,0-1.742-19.407c-.461-1.443-1.371-2.831-1.48-4.285" transform="translate(461.309 503.419)" fill="#1b365d"/>
    <path id="Path_235" data-name="Path 235" d="M158.359,42.793c-.588.142-.149-.643.063-.171-.022.057-.044.114-.063.171m-4.119,1.642c-.383.376-.595-.208-.9-.439.326-.383.359-1.211.048-1.148.109-.334.481-.077.566-.466a1.6,1.6,0,0,1,.125.437c-.022.155-.127.136-.234.1.232.466.542,1.087.4,1.511m-3.264,6.045c-.251-.33.275-.7-.23-.669a.4.4,0,0,0-.042-.4c.317-.254.317.16.68.256a.991.991,0,0,1-.409.818m-4.044-20.564c-.155.077-.431-.12-.52.094-.081-.011-.07-.063-.057-.118.046-.068,0-.092-.05-.116.09-.216.4.048.415-.328a.34.34,0,0,1,.212.468M143.841,43.7a.834.834,0,0,1,.853-.455c-.127.269.26.306.177.553-.24.463-.754.223-1.03-.1m-5.026,9.16a.337.337,0,0,1-.21-.468.341.341,0,0,1,.21.468m-3.131,14.965c-3.653,8.845-10.435,14.847-18.157,19.9a26.484,26.484,0,0,1-8.329,3.6c-3.787.881-7.934,1.76-11.775-.251-4.574-2.39-9.285-4.414-13.769-7.177A20.656,20.656,0,0,1,73.574,69.067a49.048,49.048,0,0,1,.339-18.137c1.255-6.255,5.225-11.2,9.243-15.935a40.626,40.626,0,0,1,7.212-6.646c5.407-3.887,11.738-3.85,17.9-2.884a49.468,49.468,0,0,1,15.347,5.4,24.435,24.435,0,0,1,10.465,9.659,23.156,23.156,0,0,1,2.337,7.149c.625,3.6.8,7.28,1.165,10.927a20.272,20.272,0,0,1-1.9,9.219M72.719,50.513a.386.386,0,0,1-.094-.52c.245.077.164.3.094.52M71.685,36.337c-.372-.186-.439-.507-.216-.96.466-.046.446.488.216.96m-3.006,9.731c-.306-.083-.144-.562.055-.66.365.184.2.523-.055.66M75.22,32.142a.342.342,0,0,1,.208.468.338.338,0,0,1-.208-.468M80.045,8.15c.424-.188.625.188.785.49-.3,1.242-1.209.284-.785-.49m20.642,5.337c-.328.783-.4,1.506-.774,1.738a4.619,4.619,0,0,1-4.775.146c1.436-2.127,3.225-2.16,5.549-1.885m22.982-2.875c-.085.131.007.186.107.234-.033.195-.394-.317-.647-.341.081-.186.372.1.54.107m.625.916c-.09-.052-.015-.1.031-.085a2.883,2.883,0,0,1-.444-.363c.251-.361.846.293.413.448m36.494,40.045c-.087-.083-.168-.223-.2-.072a2.705,2.705,0,0,0-.369-.818,3.669,3.669,0,0,1,.367.042c-.783-3.325-1.64-6.633-2.261-9.984-1.627-8.791-7.394-14.925-13.594-20.526-5.9-5.339-12.424-10.011-20.089-12.7C118.557,5.376,112.587,2.96,106.109,2c-3.867-.573-7.553.153-11.32.339C87.522,2.7,80.852,5.262,74.682,8.723c-7.14,4-10.979,10.542-15.907,16.965-3.08,4.02-4.283,9.241-5.964,15.378-3.006,10.959-4.779,18.294,1.452,34.122,2.7,6.852,5.284,13.113,9.67,18.688a53.164,53.164,0,0,0,13.673,11.67,38.981,38.981,0,0,0,7.8,4.252,69.241,69.241,0,0,0,9.606,2.6,69.845,69.845,0,0,0,10.225,1.2c1.749.074,3.5.087,5.253.024a19.48,19.48,0,0,0,4.138-.934,69.523,69.523,0,0,0,17.7-7.4c.114-.066.225-.133.339-.2,7.779-4.628,15.347-9.37,19.558-17.87a25.806,25.806,0,0,1,1.963-2.8,23.59,23.59,0,0,0,1.607-2.545c4.547-8.992,4.687-18.808,5.26-28.539a5.587,5.587,0,0,0-.206-1.508c-.02-.085-.042-.173-.061-.258" transform="translate(394.396 502.114)" fill="#1b365d"/>
    <path id="Path_236" data-name="Path 236" d="M352.97,76.195A5.6,5.6,0,0,1,355.03,81.2a5.686,5.686,0,0,1-3.231,4.624,8.123,8.123,0,0,1-2.1.632.711.711,0,0,0-.092.164.6.6,0,0,0-.081-.131,11.361,11.361,0,0,1-3.563-.083c-.673-2.033-.094-4.178-.37-6.25-.269-2.04-.155-4.04-.223-6.239a8.8,8.8,0,0,1,7.6,2.276m-10.3,1.1c-.05-.186.092-.177.116-.291.135.046.055.361-.116.291m1.515-6.7c-.092.007-.223-.028-.232.057a.591.591,0,0,1-.151-.249,6.888,6.888,0,0,1-.68-.175.491.491,0,0,0-.219,0,1.966,1.966,0,0,1-.118.313c-.2.046-.258-.05-.341-.122a1.4,1.4,0,0,0-.461.586,3.239,3.239,0,0,0-.041,2.628,6.58,6.58,0,0,1,.579,2.862c.1,2.206.118,4.418.129,6.631.009,2.357-2.121,5.82,1.253,6.758a1,1,0,0,0,.155.037c.647.109,1.218-.245,1.909-.216a24.912,24.912,0,0,0,5.1-.551,7.409,7.409,0,0,0,4.309-2.175,9.918,9.918,0,0,0,2.606-8.618,3.375,3.375,0,0,0-.492-1.377c-1.876-2.781-4.16-4.982-7.6-5.811-1.911-.463-3.9-.254-5.8-.693.037.039.087.074.1.12" transform="translate(740.303 583.287)" fill="#1b365d"/>
    <path id="Path_237" data-name="Path 237" d="M265.366,87.8c-.138-.083.037-.348.059-.466h.175c.039.273-.131.334-.234.466m-1.806.35c-.072-.306.131-.433.289-.7.166.011.16.19.291.234-.223.127-.332.363-.579.466m.057-6.355c.024.122-.042.155-.057.234-.1.009-.125-.07-.234-.057.039-.116.155-.157.291-.177m-.468,3.964c-.028-.146-.1-.225.118-.232.031.149.1.227-.118.232m-.232-1.865a.272.272,0,0,0,.059-.173c.164-.011.319-.009.291.173Zm0-1.106c.118-.09-.1.321.293.175-.028.343-.269.039-.411,0,.039-.059.136-.059.118-.175m1.281-1.226c.02.234-.267.16-.289.35-.07-.009-.033-.057,0-.057-.1-.055-.153-.16-.118-.35.262.011.131.149.407.057m.118,2.626c.138-.02.219-.094.409-.059-.175.079-.122.383-.409.35Zm.7-2.508c0,.16.1.12,0,.232-.205-.022-.116-.254-.35-.116.007-.149.2-.116.35-.116m2.331-4.313c-.188.05-.122-.151-.232-.175.066-.155.308-.007.232.175m.468.7c-.138-.077-.168-.26-.234-.407.219-.007.2.23.234.407m-1.919,8a1.314,1.314,0,0,1-.879.627c-.21.1-.116.157-.177.35h-.23c.243.155-.166.433-.47.409a6.068,6.068,0,0,1,1.651-1.736,9.208,9.208,0,0,1-.238-4.582c-.039-.048-.052-.1-.013-.21.026,0,.024.026.042.033.02-.074.015-.146.037-.223a4.619,4.619,0,0,1,.415-.518q3.181-3.066,6.375-6.115a4.7,4.7,0,0,0,1.887-2.811c-.411-.492-.553-1.207-1.331-1.347a2.79,2.79,0,0,0-1.994,1.27,25.923,25.923,0,0,1-4.458,4.567,3.757,3.757,0,0,1-1.764,1.163c-1.176-1.537-2.278-3.065-3.474-4.51a22.316,22.316,0,0,0-2.414-2.44,3.206,3.206,0,0,0-1.325-.6,1.165,1.165,0,0,0-1.32,1.124,1.941,1.941,0,0,0,.621,1.537c.942.912,1.891,1.821,2.792,2.776a9.238,9.238,0,0,1,2.9,7.029c0,.079.007.155.007.232.188-.044-.02.317.21.232a.285.285,0,0,0-.057.173.14.14,0,0,1-.149-.02c.033,1.334.321,2.68.422,4.023.035.481.719,3.712,1.362,3.815,1.9.3,2.363-1.659,1.937-3.032-.127-.4-.245-.811-.361-1.216" transform="translate(638.924 582.286)" fill="#1b365d"/>
    <path id="Path_238" data-name="Path 238" d="M335.16,70.45a.2.2,0,0,0-.041.129H334.9c.013-.162.142-.175.258-.129" transform="translate(732.265 583.542)" fill="#1b365d" fill-rule="evenodd"/>
    <path id="Path_239" data-name="Path 239" d="M335,70.52c0,.109-.162.1-.219.044.007-.109.164-.1.219-.044" transform="translate(732.122 583.603)" fill="#1b365d" fill-rule="evenodd"/>
    <path id="Path_240" data-name="Path 240" d="M337.976,70.517h.173c.05.177-.131.214-.216.129a.2.2,0,0,0,.044-.129" transform="translate(735.86 583.648)" fill="#1b365d" fill-rule="evenodd"/>
    <path id="Path_241" data-name="Path 241" d="M336.963,70.795h.129v.258c-.153.028-.131-.127-.129-.258" transform="translate(734.708 583.978)" fill="#1b365d" fill-rule="evenodd"/>
    <path id="Path_242" data-name="Path 242" d="M329.007,70.874c.094.039.131.243-.046.219-.037-.125.063-.114.046-.219" transform="translate(725.209 584.072)" fill="#1b365d" fill-rule="evenodd"/>
    <path id="Path_243" data-name="Path 243" d="M333.951,71.449c.171,0,.181.16.168.348-.072-.1-.177-.168-.168-.348" transform="translate(731.137 584.754)" fill="#1b365d" fill-rule="evenodd"/>
    <path id="Path_244" data-name="Path 244" d="M242.553,21.819c.114.129.225.258.339.391a.488.488,0,0,0,.052-.73c-.129.114-.262.225-.391.339" transform="translate(622.72 525.48)" fill="#1b365d"/>
    <path id="Path_245" data-name="Path 245" d="M336.217,69.527a.788.788,0,0,1,.391.477h-.219c.007-.151-.037-.251-.216-.219-.031-.131.044-.155.044-.258" transform="translate(733.764 582.474)" fill="#1b365d" fill-rule="evenodd"/>
    <path id="Path_250" data-name="Path 250" d="M387.343,49.162a.415.415,0,0,0,.009.151c.026-.035.046-.07.07-.1-.022-.022-.033-.055-.079-.046" transform="translate(794.469 558.315)" fill="#1b365d"/>
    <path id="Path_254" data-name="Path 254" d="M370.305,50.569v0l0,0Z" transform="translate(774.258 559.983)" fill="#1b365d"/>
    <path id="Path_257" data-name="Path 257" d="M359.126,52.918l.048.015c-.011-.011-.017-.028-.039-.028l-.009.013" transform="translate(761 562.757)" fill="#1b365d"/>
  </g>
</svg>
