<svg xmlns="http://www.w3.org/2000/svg" id="uuid-25a46922-8dad-4f19-8fad-e636874005f7" width="538.2727642" height="100" viewBox="0 0 538.2727642 100"><path d="M326.1386291,14.4700756c4.214585,0,7.5862445,1.3346197,10.1149998,4.0038563s3.7228749,6.3921196,3.7228749,11.1686514v20.7919518h-9.1316009v-18.8953907c0-5.6896887-2.2477873-8.5696568-6.673093-8.5696568s-4.214585.8429175-5.478952,2.52875c-1.2643669,1.6858351-1.8965718,4.0740983-1.8965718,7.0945531v17.8417444h-9.2018483v-18.8953907c0-5.6896887-2.1775399-8.5696568-6.5325982-8.5696568s-4.2848324.8429175-5.6194467,2.5989946-1.8965718,4.144343-1.8965718,7.3052818v17.560771h-9.1316009V15.4534798h9.1316009v4.144343c2.5990027-3.4419122,6.1111569-5.1277446,10.3959679-5.1277446s8.2886753,1.7560771,10.5364626,5.2682313c2.739476-3.5121542,6.7433404-5.2682313,11.8008295-5.2682313h0l-.1404519-.0000027Z" style="fill:#001833;"></path><path d="M382.5438384,15.4534771l-21.0026993,49.4511322h-9.4125904l6.3218776-15.3129945-15.8046939-34.2083824h10.0447524l10.3257419,23.6016725,9.7638058-23.6016752h9.7638058v.0702474Z" style="fill:#001833;"></path><path d="M409.9386411,2.1072925c5.0575106,0,9.061375,1.6858337,12.152045,5.1277459s4.6360264,7.3052805,4.6360264,11.6603509-1.5453564,8.3589281-4.6360264,11.7305956c-3.0907128,3.3716675-7.3052979,5.0575026-12.5032604,5.0575026h-12.8544758v14.7510476h-9.4125904V2.0370492h22.6885076l-.0702259.0702434ZM409.1659415,27.1840727c2.4585079,0,4.4253057-.8429175,6.0408881-2.52875,1.5453564-1.6858351,2.3180132-3.5823962,2.3180132-5.7599334s-.7726568-4.1443417-2.2477873-5.7599334c-1.4750876-1.6858337-3.3716595-2.5287513-5.6194467-2.5287513h-12.9949705v16.5773681h12.5735292-.0702259Z" style="fill:#001833;"></path><path d="M446.394776,51.4179394c-4.9170159,0-8.9911062-1.7560771-12.2925397-5.2682313s-4.9872418-7.9374706-4.9872418-13.1354572,1.6858512-9.6935451,4.9872418-13.2056993c3.3014335-3.5121542,7.4457498-5.2682313,12.2925397-5.2682313s8.5696648,1.6858351,11.2388934,5.1979893v-4.214585h9.2018269v34.9810526h-9.2018269v-4.2848271c-2.6692286,3.5121542-6.4623723,5.2682313-11.2388934,5.2682313h0v-.070242ZM448.0104012,43.1994953c2.8097234,0,5.1277366-.9834042,7.0945343-2.9502074s2.8799493-4.4253138,2.8799493-7.4457658-.9131515-5.3384733-2.8799493-7.3052818c-1.8965718-1.8965638-4.284811-2.8799654-7.0945343-2.8799654s-5.1980054.9131596-7.0945343,2.8799654c-1.826303,1.8965638-2.7394974,4.3550717-2.7394974,7.3755238s.9131515,5.5492047,2.7394974,7.4457658c1.826303,1.8965611,4.214585,2.8799654,7.0945343,2.8799654h0Z" style="fill:#001833;"></path><path d="M498.0234427,49.3106468c-2.7394974,1.1238883-5.478952,1.6858351-8.1481806,1.6858351-3.8633696,0-6.8135877-1.1238883-8.7101596-3.3014228-1.9667978-2.1775345-2.9502181-5.2682313-2.9502181-9.2018429v-15.032021h-5.9004362v-8.0077126h5.9004362V4.1443417h9.2018269v11.3091355h10.2554731v8.0077126h-10.2554731v15.032021c0,2.9502074,1.4048617,4.4253164,4.284811,4.4253164s2.8799493-.3512154,4.1443591-.9834042l2.2477873,7.3755238h-.0702259Z" style="fill:#001833;"></path><path d="M524.2943733,14.5403176c4.4955745,0,7.867234,1.4048617,10.2554731,4.144343s3.5121542,6.5326063,3.5121542,11.3091381v20.4407364h-9.1316009v-18.754904c0-2.7394813-.6322049-4.8467739-1.8965718-6.3921223s-3.0907128-2.3180212-5.5492208-2.3180212-4.5658005.9131596-6.1111569,2.7394813c-1.5453564,1.8263191-2.3180132,4.2848271-2.3180132,7.3755238v17.2798003h-9.1316009V0h9.1316009v19.8787936c2.8097234-3.5823962,6.5325982-5.408718,11.2388934-5.408718h0l.0000429.070242Z" style="fill:#001833;"></path><path d="M413.5210213,61.954402l-5.2682313,17.3500396h-3.5823801l-3.4419283-11.6603509-3.4419283,11.6603509h-3.5823801l-5.2682313-17.3500396h3.5823801l3.5823801,12.5735131,3.6526489-12.5735131h3.020444l3.6526489,12.5735131,3.5823801-12.5735131h3.5823801-.0701831Z" style="fill:#edb455;"></path><path d="M427.9911223,65.0450934v4.0038536h8.2184494v2.9502074h-8.2184494v4.2848271h9.4828163v3.0906968h-12.7842499v-17.3500396h12.7842499v3.0906968h-9.4828163v-.070242Z" style="fill:#edb455;"></path><path d="M460.935103,75.581556h-7.7969652l-1.4750876,3.7931276h-3.5121542l6.673093-17.350045h4.4253057l6.673093,17.3500396h-3.5823801l-1.4048617-3.7931276-.0000429.0000054ZM459.8112308,72.5611066l-2.8097234-7.3755238-2.8097234,7.3755238h5.6194467Z" style="fill:#edb455;"></path><path d="M489.1026054,76.2137448v3.1609388h-12.081819v-17.350045h3.3716595v14.2593482h8.6398908l.0702688-.070242Z" style="fill:#edb455;"></path><path d="M512.0720595,65.0450934h-5.8301674v14.3295902h-3.3716595v-14.3295902h-5.8301674v-3.0906968h15.1022631v3.0906968h-.0702688Z" style="fill:#edb455;"></path><path d="M538.2727642,61.954402v17.3500396h-3.4419283v-7.3052818h-7.9374599v7.3052818h-3.3716595v-17.3500396h3.3716595v7.0243084h7.9374599v-7.0243084h3.4419283Z" style="fill:#edb455;"></path><path d="M62.5865801,12.9247272c1.6858351,0,3.3014228.3512154,4.8467739,1.0536463,1.5453457.7024308,2.8097234,1.7560771,3.9336116,3.1609388s1.8965611,3.1609388,2.3882659,5.2682313l10.1852525,43.7614435h-9.8340318l-9.5530584-41.794635c-.140484-.6321888-.3512154-1.1238883-.6321888-1.4048617-.2809734-.3512154-.7024308-.4917021-1.2643777-.4917021s-.8429149.1404867-1.1238883.4917021-.4214574.7024308-.5619468,1.194133l-8.4994121,33.786925c-.8429149,3.1609388-2.1775345,5.5492047-3.9336116,7.0945504s-4.0038536,2.3180239-6.813577,2.3180239-4.9872579-.7726729-6.813577-2.2477765c-1.7560771-1.5453457-3.0204548-3.8633696-3.7931276-7.0243084l-8.3589281-33.927409c-.2107287-.5619441-.4917021-.9834042-.7726729-1.264375-.2809734-.2809734-.7024308-.4214574-1.194133-.4214574s-.9131596.1404867-1.194133.4214574c-.2809734.2809734-.4917021.7726729-.6321888,1.4751037l-9.2018429,41.794635H0L9.8340304,22.4075516c.4917021-2.1072925,1.264375-3.8633696,2.3180212-5.2682313s2.3180212-2.4585079,3.7931276-3.1609388c1.4751037-.7024308,3.0906968-1.0536463,4.8467739-1.0536463,2.6692367,0,4.9170159.7726742,6.673093,2.3882646,1.7560771,1.6155917,3.0204521,3.933613,3.7931249,7.0243071l8.4994121,34.3488691c.140484.4916994.3512154.9131622.7024308,1.1941303.3512154.3512154.7024308.4916994,1.1941303.4916994s.9131622-.140484,1.1941303-.4916994c.2809734-.3512154.4916994-.7024308.5619468-1.1941303l8.5696541-34.3488691c.7726729-3.0906968,2.0370505-5.47896,3.7931276-7.0243084,1.7560771-1.6155904,4.0038536-2.3882646,6.673093-2.3882646l.140484-.0000067Z" style="fill:#edb455;"></path><path d="M169.9180146,67.5036013c-1.6858297,0-3.3014335-.3512154-4.8467685-1.0536463-1.5453457-.7024308-2.8097234-1.7560771-3.933617-3.1609388s-1.8965611-3.1609388-2.3882606-5.2682313l-10.1852472-43.7614408h9.8340318l9.5530637,41.7946323c.1404947.6321888.3512154,1.1238883.6321835,1.4048617.280968.3512154.7024308.4916994,1.2643669.4916994s.8429256-.140484,1.1238936-.4916994.4214628-.7024308.5619361-1.1941303l8.4994175-33.7869223c.8429256-3.1609388,2.1775399-5.5492047,3.933617-7.0945518,1.7560771-1.5453484,4.0038644-2.3180212,6.8135877-2.3180212s4.9872633.7726742,6.8135877,2.2477792c1.7560771,1.545347,3.020444,3.863371,3.7931222,7.0243097l8.3589227,33.9274064c.2107207.5619468.4917102.9834042.7726782,1.2643777s.7024308.4214574,1.194141.4214574.9131515-.140484,1.194141-.4214574c.280968-.2809734.4917102-.7726729.6321835-1.4751037l9.2018483-41.794635h9.7637844l-9.8340318,43.7614381c-.4917102,2.1072925-1.2643669,3.8633696-2.3180132,5.2682313s-2.3180132,2.4585079-3.7931222,3.1609388-3.0906914,1.0536463-4.8467685,1.0536463c-2.6692286,0-4.9170159-.7726729-6.673093-2.3882659s-3.020444-3.9336116-3.7931222-7.0243084l-8.4994175-34.3488691c-.1404947-.4917021-.3512154-.9131596-.7024308-1.194133-.3512154-.3512154-.7024308-.4917021-1.194141-.4917021s-.9131515.1404867-1.194141.4917021c-.280968.3512154-.4917102.7024308-.5619361,1.194133l-8.5696648,34.3488691c-.7726782,3.0906968-2.0370451,5.4789627-3.7931222,7.0243084-1.7560771,1.6155931-4.0038644,2.3882659-6.673093,2.3882659h-.1405162Z" style="fill:#edb455;"></path><path d="M145.4031825,38.4932108c0-15.4534785-12.5735077-27.9567469-27.9567496-27.9567469s-27.9567496,12.5735104-27.9567496,27.9567469h0l.4214628,22.4075449.280968,22.5480235c.2107314,4.9872633,2.6692393,9.8340318,6.6028456,12.8544865,12.4330237,9.3423323,28.6591804-.2107314,27.8162655-15.3832365.140484-.9131622.280968-1.8965611.7024308-2.8097234h-9.9745158c.7024308,1.5453457.9131622,3.8633696.7726782,5.3384733-.9833989,10.8174306-16.7880928,10.60671-17.279803-.280968,0-11.1686514.4214628-33.5059489.6321835-44.6746003h0c0-9.9042738,8.0779547-17.9822284,17.9822338-17.9822284s17.9822338,8.0779547,17.9822338,17.9822284-8.0779547,17.9822284-17.9822338,17.9822284h-6.2516302l-6.2516302,9.9745158h12.4330237c15.4534785,0,27.9567496-12.5032711,27.9567496-27.9567496l.0702367.0000054Z" style="fill:#001833;"></path><rect x="257.7921169" y="6.673093" width="2.5287553" height="64.76412" style="fill:#001833;"></rect></svg>